<svg id="Group_911" data-name="Group 911" xmlns="http://www.w3.org/2000/svg" width="205.247" height="40.08" viewBox="0 0 205.247 40.08">
  <g id="Group_909" data-name="Group 909">
    <path id="Path_660" data-name="Path 660" d="M6.791,9.268c1.006-1.222,2.7-1.94,5.066-1.94,5.319,0,8.876,3.952,8.876,9.557,0,5.785-2.982,9.127-8.337,9.451a7.468,7.468,0,0,1-6.037-2.3l-.287,1.976H0V.1H6.791Zm-.144,7.8a3.684,3.684,0,0,0,3.666,3.809c2.084,0,3.665-1.437,3.665-3.989s-1.581-4.06-3.665-4.06C7.941,12.825,6.647,14.838,6.647,17.065Z" transform="translate(0 -0.069)" fill="#fff"/>
    <path id="Path_661" data-name="Path 661" d="M78.553,0V25.943H71.834V0Z" transform="translate(-47.301)" fill="#fff"/>
    <path id="Path_662" data-name="Path 662" d="M116.274,21.561h6.4V39.851h-6.288l-.323-1.976a7.438,7.438,0,0,1-6,2.3c-5.39-.288-8.372-4.168-8.372-9.451,0-5.426,3.522-9.558,8.875-9.558,2.624,0,4.384.9,5.354,2.372Zm-7.833,9.162c0,2.552,1.617,3.988,3.666,3.988a3.778,3.778,0,0,0,3.773-3.988c0-2.479-1.366-4.06-3.773-4.06C110.057,26.663,108.44,28.173,108.44,30.724Z" transform="translate(-66.957 -13.937)" fill="#fff"/>
    <path id="Path_663" data-name="Path 663" d="M190.757,37.12a11.381,11.381,0,0,1-7.546,3.09c-5.317,0-10.348-2.623-10.348-9.45,0-6.683,5.066-9.594,10.241-9.594A10.159,10.159,0,0,1,190.29,24l-3.629,3.917a4.373,4.373,0,0,0-3.162-1.33c-2.623,0-3.988,1.869-3.988,4.2a3.728,3.728,0,0,0,3.952,3.773,4.594,4.594,0,0,0,3.413-1.546Z" transform="translate(-113.827 -13.937)" fill="#fff"/>
    <path id="Path_664" data-name="Path 664" d="M239.985.017V13.025l3.809-5.389h7.582v.287l-6.4,8.3,7.438,9.306v.4h-7.69l-4.743-6.36v6.36h-6.827V.017Z" transform="translate(-153.53 -0.011)" fill="#fff"/>
    <path id="Path_665" data-name="Path 665" d="M305.815,9.18c1.006-1.222,2.695-1.94,5.066-1.94,5.318,0,8.876,3.953,8.876,9.558,0,5.785-2.982,9.127-8.337,9.451a7.468,7.468,0,0,1-6.037-2.3l-.287,1.976h-6.073V.017h6.791Zm-.144,7.8a3.684,3.684,0,0,0,3.666,3.809c2.084,0,3.665-1.437,3.665-3.988s-1.581-4.06-3.665-4.06C306.965,12.737,305.671,14.75,305.671,16.977Z" transform="translate(-196.901 -0.011)" fill="#fff"/>
    <path id="Path_666" data-name="Path 666" d="M387.567,32.558H374.775c.5,1.617,2.587,2.336,4.1,2.336a7.329,7.329,0,0,0,4.672-1.473l3.342,3.737a11.931,11.931,0,0,1-8.337,3.019c-5.749,0-10.636-2.839-10.636-9.486,0-6.683,5.21-9.631,10.168-9.631C384.549,21.059,389.148,25.3,387.567,32.558Zm-6.108-4.348c-.144-2.91-6.181-3.019-6.648,0Z" transform="translate(-242.262 -13.867)" fill="#fff"/>
    <path id="Path_667" data-name="Path 667" d="M448.653,21.561h6.4V39.851H448.76l-.323-1.976a7.439,7.439,0,0,1-6,2.3c-5.39-.288-8.372-4.168-8.372-9.451,0-5.426,3.521-9.558,8.875-9.558,2.624,0,4.384.9,5.354,2.372Zm-7.834,9.162c0,2.552,1.617,3.988,3.666,3.988a3.778,3.778,0,0,0,3.773-3.988c0-2.479-1.366-4.06-3.773-4.06C442.436,26.663,440.819,28.173,440.819,30.724Z" transform="translate(-285.822 -13.937)" fill="#fff"/>
    <path id="Path_668" data-name="Path 668" d="M521.583,39.777v-10.1c0-2.264-1.294-3.055-2.551-3.055-1.653,0-3.162,1.114-3.162,3.521v9.63h-6.719V21.488h6.037l.287,2.012a7.374,7.374,0,0,1,5.749-2.444c3.881,0,7.151,2.084,7.151,8.589V39.777Z" transform="translate(-335.265 -13.864)" fill="#fff"/>
    <path id="Path_669" data-name="Path 669" d="M583.1,56.159c4.924,0,4.924,7.359,0,7.359C578.21,63.518,578.21,56.159,583.1,56.159Z" transform="translate(-381.544 -36.98)" fill="#00adee"/>
  </g>
  <g id="Group_910" data-name="Group 910" transform="translate(0 33.125)">
    <path id="Path_670" data-name="Path 670" d="M0,97.339H.829v6.7H0Z" transform="translate(0 -97.22)" fill="#fff"/>
    <path id="Path_671" data-name="Path 671" d="M20,97.339l4.1,5.132V97.339h.82v6.7h-.574l-4.112-5.114v5.114h-.82v-6.7Z" transform="translate(-12.784 -97.22)" fill="#fff"/>
    <path id="Path_672" data-name="Path 672" d="M52.53,97.312h2.434a3.177,3.177,0,0,1,3.373,3.282,3.21,3.21,0,0,1-3.373,3.428H52.53V97.312Zm2.434,5.88a2.434,2.434,0,0,0,2.543-2.607,2.384,2.384,0,0,0-2.543-2.47h-1.6v5.077Z" transform="translate(-34.59 -97.203)" fill="#fff"/>
    <path id="Path_673" data-name="Path 673" d="M90.527,97.348v4.029a2.6,2.6,0,0,1-2.717,2.8,2.63,2.63,0,0,1-2.753-2.8V97.348h.83v4.029a1.909,1.909,0,1,0,3.81-.009V97.339h.82Z" transform="translate(-56.008 -97.22)" fill="#fff"/>
    <path id="Path_674" data-name="Path 674" d="M119.122,97.739c-.857,0-1.759.365-1.759,1.122,0,.729.82.948,1.814,1.1,1.331.2,2.662.483,2.662,1.987s-1.45,2-2.726,2a2.929,2.929,0,0,1-2.835-1.549l.683-.4a2.468,2.468,0,0,0,2.161,1.176c.811,0,1.9-.264,1.9-1.249,0-.83-.921-1.067-1.933-1.222-1.295-.2-2.553-.51-2.553-1.86-.027-1.358,1.422-1.85,2.571-1.85a2.617,2.617,0,0,1,2.535,1.222l-.629.392A2.232,2.232,0,0,0,119.122,97.739Z" transform="translate(-76.567 -96.992)" fill="#fff"/>
    <path id="Path_675" data-name="Path 675" d="M146.057,98.087v-.748h5.4v.748h-2.289v5.952h-.82V98.087Z" transform="translate(-96.175 -97.22)" fill="#fff"/>
    <path id="Path_676" data-name="Path 676" d="M179.166,101.623h-1.623v2.416h-.829v-6.7h3.044a2.113,2.113,0,0,1,2.261,2.142,1.933,1.933,0,0,1-1.923,2.078l2.215,2.479h-1.057Zm.547-.738a1.332,1.332,0,0,0,1.477-1.386,1.386,1.386,0,0,0-1.432-1.413h-2.215v2.8Z" transform="translate(-116.363 -97.22)" fill="#fff"/>
    <path id="Path_677" data-name="Path 677" d="M208.442,97.339h.829v6.7h-.829Z" transform="translate(-137.255 -97.22)" fill="#fff"/>
    <path id="Path_678" data-name="Path 678" d="M229.658,97.339l3.007,6.7h-.9l-.657-1.476h-3.828l-.647,1.476h-.912l3.008-6.7Zm-.465.838-1.586,3.619h3.172Z" transform="translate(-148.632 -97.22)" fill="#fff"/>
    <path id="Path_679" data-name="Path 679" d="M261.749,103.264H265.4v.775H260.92v-6.7h.829Z" transform="translate(-171.81 -97.22)" fill="#fff"/>
    <path id="Path_680" data-name="Path 680" d="M310.494,101.933h-.173l-2.434-3.409v5.515h-.82v-6.7h.993l2.352,3.446,2.334-3.446h1v6.7h-.83v-5.5Z" transform="translate(-202.197 -97.22)" fill="#fff"/>
    <path id="Path_681" data-name="Path 681" d="M345.4,97.339l3.008,6.7h-.9l-.657-1.476h-3.829l-.647,1.476h-.912l3.008-6.7Zm-.465.838-1.586,3.619h3.172Z" transform="translate(-224.847 -97.22)" fill="#fff"/>
    <path id="Path_682" data-name="Path 682" d="M379.115,101.623h-1.623v2.416h-.829v-6.7h3.045a2.113,2.113,0,0,1,2.26,2.142,1.933,1.933,0,0,1-1.923,2.078l2.215,2.479H381.2Zm.547-.738a1.332,1.332,0,0,0,1.477-1.386,1.386,1.386,0,0,0-1.431-1.413h-2.215v2.8Z" transform="translate(-248.025 -97.22)" fill="#fff"/>
    <path id="Path_683" data-name="Path 683" d="M408.39,97.339h.82v2.953l2.962-2.953h1.049v.045L410,100.566l3.5,3.419v.054h-1.029l-3.264-3.145v3.145h-.82Z" transform="translate(-268.916 -97.22)" fill="#fff"/>
    <path id="Path_684" data-name="Path 684" d="M437.741,97.339h4.7V98.1h-3.883v2.1h3.72v.775h-3.72v2.27H442.6v.793h-4.858Z" transform="translate(-288.243 -97.22)" fill="#fff"/>
    <path id="Path_685" data-name="Path 685" d="M465.624,98.087v-.748h5.4v.748h-2.288v5.952h-.82V98.087Z" transform="translate(-306.603 -97.22)" fill="#fff"/>
    <path id="Path_686" data-name="Path 686" d="M496.281,97.339h.829v6.7h-.829Z" transform="translate(-326.79 -97.22)" fill="#fff"/>
    <path id="Path_687" data-name="Path 687" d="M516.279,97.339l4.1,5.132V97.339h.82v6.7h-.574l-4.112-5.114v5.114h-.82v-6.7Z" transform="translate(-339.575 -97.22)" fill="#fff"/>
    <path id="Path_688" data-name="Path 688" d="M553.1,98.56a2.964,2.964,0,0,0-1.978-.793,2.594,2.594,0,0,0-2.662,2.762,2.51,2.51,0,0,0,2.68,2.634,2.683,2.683,0,0,0,1.823-.683v-1.586h-2.087v-.729h2.844v2.643a3.385,3.385,0,0,1-2.589,1.139,3.239,3.239,0,0,1-3.491-3.418,3.32,3.32,0,0,1,3.482-3.537A3.479,3.479,0,0,1,553.58,98Z" transform="translate(-360.607 -96.992)" fill="#fff"/>
  </g>
</svg>
