<?xml version="1.0" encoding="utf-8"?>
<!-- Generator: Adobe Illustrator 25.2.3, SVG Export Plug-In . SVG Version: 6.00 Build 0)  -->
<svg version="1.1" id="Layer_1" xmlns="http://www.w3.org/2000/svg" xmlns:xlink="http://www.w3.org/1999/xlink" x="0px" y="0px"
	 viewBox="0 0 392.7 318.18" style="enable-background:new 0 0 392.7 318.18;" xml:space="preserve">
<style type="text/css">
	.st0{fill:#F5F5F4;}
	.st1{fill:#041026;}
	.st2{fill:#01A0C6;}
	.st3{fill:#3C4758;}
	.st4{fill:#F5FA16;}
	.st5{fill:#FDFECF;}
	.st6{fill:#3F3F30;}
	.st7{fill:#E5E5D1;}
	.st8{fill:#577C50;}
	.st9{fill:#E1E6E5;stroke:#AFAFAF;stroke-width:2;stroke-linecap:round;stroke-miterlimit:10;}
	.st10{fill:none;stroke:#AFAFAF;stroke-width:2;stroke-linecap:round;stroke-miterlimit:10;}
	.st11{opacity:0.3;fill:#AFAFAF;}
	.st12{fill:#F2F2F2;}
	.st13{fill:#F5B186;}
	.st14{fill:#937745;}
	.st15{fill:#3A260A;}
	.st16{fill:#716258;}
	.st17{fill:#DCE3E8;}
	.st18{fill:#F3B186;}
	.st19{fill:#3A260B;}
	.st20{fill:#706258;}
	.st21{fill:#199DBF;}
	.st22{fill:#E5E4D1;}
</style>
<g>
	<g>
		<path class="st10" d="M255.81,51.07c0,0,7.89,0.85,10.32,17.11c0.23,1.53,0.35,4.46,0.67,5.97c0.87,4.11,1.72,2.76,18.43,5.87
			c22.28,4.14,12.72,27.22,4.79,42.72c-7.94,15.5,5.89,18.69,5.89,18.69s-14.74,5.63-21.54-12.76c0,0-4.72-13.32-23-12.22
			c-18.28,1.1-28.91-12.51-29.29-17.59L255.81,51.07z"/>
		<line class="st10" x1="175.93" y1="164.09" x2="256.56" y2="48.98"/>
		<path class="st11" d="M298.42,89.46c-0.07-0.37-0.43-0.61-0.8-0.54c-0.37,0.07-0.62,0.43-0.54,0.8c0.07,0.39-0.18,1-0.7,1.67
			c-0.73,0.94-2,2.01-3.69,3.08c-0.08-0.23-0.17-0.46-0.27-0.68c-2.54-5.51-9.79-6.81-18.18-8.32c-2.25-0.4-4.56-0.83-6.85-1.35
			c0.91-4.06,0.37-7.61,0.36-7.69c-0.06-0.37-0.42-0.63-0.78-0.57c-0.37,0.06-0.63,0.41-0.57,0.79c0.04,0.28,0.53,3.51-0.28,7.16
			c-3.55-1.13-4.5-5.96-5.49-11.07c-0.36-1.86-0.73-3.78-1.25-5.51c0,0,0-0.01,0-0.01c2.9-6.31,2.32-12.08,2.31-12.17
			c-0.04-0.38-0.39-0.65-0.76-0.6c-0.38,0.04-0.65,0.38-0.6,0.76c0.04,0.34,0.49,4.91-1.57,10.18c-2.47-6.49-6.5-8.78-6.68-8.89
			c-0.33-0.18-0.75-0.06-0.93,0.27c-0.18,0.33-0.06,0.75,0.26,0.93c0.04,0.02,4.32,2.5,6.53,9.52c-1.59,3.21-4.2,6.52-8.43,9.21
			c-1.56-4.79-5.97-6.52-6.19-6.6c-0.35-0.13-0.75,0.04-0.88,0.4c-0.13,0.35,0.04,0.75,0.4,0.88c0.19,0.07,4.19,1.67,5.45,6.05
			c-0.64,0.36-1.3,0.71-2,1.04c-5.66,2.65-10.03,7.51-13.27,12.49c-0.89-2.35-1.26-4.08-1.26-4.11c-0.08-0.37-0.44-0.61-0.81-0.53
			c-0.37,0.08-0.61,0.44-0.53,0.81c0.01,0.07,0.5,2.33,1.72,5.25c-1.76,2.9-3.15,5.78-4.18,8.22c-2.23-2.84-2.87-4.92-2.89-4.98
			c-0.1-0.36-0.48-0.57-0.85-0.47c-0.36,0.1-0.57,0.48-0.47,0.84c0.07,0.26,0.85,2.82,3.58,6.13c-1.12,2.82-1.69,4.78-1.76,5.04
			c-0.1,0.36,0.11,0.74,0.47,0.85c0.06,0.02,0.12,0.03,0.19,0.03c0.3,0,0.57-0.2,0.66-0.5c0.02-0.06,0.5-1.72,1.47-4.23
			c1.79,1.94,4.25,4.05,7.59,6.07c-1.32,2.6-1.72,4.48-1.73,4.53c-0.07,0.37,0.17,0.73,0.54,0.8c0.04,0.01,0.09,0.01,0.13,0.01
			c0.32,0,0.61-0.23,0.67-0.55c0.01-0.05,0.37-1.74,1.57-4.11c4.14,2.33,9.53,4.48,16.49,6.02c0.07,0.11,0.16,0.2,0.29,0.25
			c0.09,0.04,0.18,0.06,0.27,0.06c0.13,0,0.26-0.04,0.37-0.11c1.21,0.25,2.46,0.5,3.77,0.71c0.04,0.01,0.07,0.01,0.11,0.01
			c0.33,0,0.62-0.24,0.67-0.57c0.06-0.37-0.19-0.73-0.56-0.79c-1.13-0.19-2.21-0.39-3.26-0.61c0.96-1.8,3.4-5.81,7.45-8.97
			c1.83,0.56,3.42,1.4,4.79,2.52c2.25,1.84,3.96,4.56,5.18,8.18c-2.4,1.24-3.98,2.96-4.74,3.79c-0.14,0.15-0.24,0.27-0.31,0.34
			c-0.27,0.16-0.4,0.49-0.3,0.81c0.1,0.29,0.36,0.47,0.65,0.47c0.07,0,0.14-0.01,0.22-0.03c0.24-0.08,0.38-0.24,0.76-0.65
			c0.68-0.74,2.05-2.25,4.14-3.37c0.84,2.96,1.39,6.47,1.64,10.56c0.02,0.35,0.3,0.62,0.65,0.64c0.04,0.18,0.08,0.36,0.12,0.54
			c-0.45-0.04-0.74-0.07-0.75-0.08c-0.38-0.05-0.72,0.21-0.77,0.59c-0.05,0.37,0.21,0.72,0.59,0.77c0.09,0.01,0.61,0.08,1.39,0.13
			c0.09,0.23,0.15,0.47,0.25,0.7c3.6,8.44,14.05,11.91,14.5,12.06c0.07,0.02,0.14,0.03,0.21,0.03c0.29,0,0.56-0.18,0.65-0.47
			c0.12-0.36-0.08-0.75-0.44-0.86c-0.1-0.03-10.31-3.43-13.66-11.3c-0.01-0.03-0.02-0.06-0.03-0.09c0.21,0,0.42,0.01,0.64,0.01
			c1.05,0,2.26-0.07,3.48-0.24c0.62,4.95,3.59,10.11,12.94,11.12c0.03,0,0.05,0,0.07,0c0.35,0,0.64-0.26,0.68-0.61
			c0.04-0.38-0.23-0.71-0.61-0.75c-7.1-0.77-11.03-4.13-11.73-9.99c2.3-0.48,4.52-1.41,5.83-3.2c0.22-0.31,0.16-0.73-0.15-0.96
			c-0.3-0.22-0.73-0.16-0.96,0.15c-1.05,1.43-2.88,2.21-4.83,2.64c-0.01-0.3-0.02-0.6-0.02-0.91c0.05-3.18,1.03-6.5,2.84-9.59
			c0.33-0.57,0.64-1.12,0.95-1.67c5.6-0.49,8.64-3.71,8.8-3.88c0.26-0.28,0.24-0.71-0.04-0.97c-0.28-0.25-0.71-0.24-0.97,0.04
			c-0.13,0.14-2.52,2.66-6.98,3.34c4.79-8.8,6.65-15.21,5.7-19.75c2.02-1.23,3.53-2.49,4.38-3.57
			C298.25,91.21,298.58,90.28,298.42,89.46z M273.99,86.8c8.01,1.44,14.94,2.68,17.18,7.55c0.12,0.26,0.22,0.54,0.32,0.82
			c-3.25,1.82-7.74,3.51-13.03,4.35c-4.42-4.71-12.68-5.27-17.49-5.14c-0.5,0.01-0.96-0.01-1.42-0.04c4.32-2.01,6.46-5.52,7.48-8.91
			C269.37,85.96,271.72,86.39,273.99,86.8z M256.91,95.29c1.18,0.31,2.53,0.49,4.1,0.45c3.49-0.1,11.3,0.18,15.73,4.01
			c-0.89,0.1-1.79,0.19-2.72,0.24c-4.72,0.26-8.57,2.03-11.6,4.28c-3.2-0.84-7.03-0.96-11.69-0.32c-3.04,0.41-5.8-0.01-8.28-1.27
			c3.13-2.94,7.61-5.72,14-7.26C256.6,95.38,256.75,95.33,256.91,95.29z M258.43,69.02c0.32,1.29,0.58,2.65,0.84,3.97
			c1.03,5.32,2.11,10.8,6.49,12.13c-1.09,3.55-3.55,7.2-8.89,8.76c-5.88-1.76-6.34-8.01-6.74-13.21c-0.05-0.67-0.1-1.32-0.16-1.93
			c-0.03-0.32-0.08-0.62-0.14-0.92C253.96,75.28,256.66,72.15,258.43,69.02z M246.85,79.43c0.6-0.28,1.16-0.57,1.71-0.87
			c0.01,0.11,0.04,0.21,0.05,0.32c0.06,0.6,0.11,1.24,0.16,1.9c0.35,4.62,0.87,11,5.95,13.69c-6.12,1.71-10.46,4.54-13.52,7.51
			c-2.06-1.33-3.91-3.27-5.53-5.84c-0.82-1.3-1.48-2.61-2.02-3.85C236.84,87.17,241.2,82.07,246.85,79.43z M228.95,101.52
			c0.95-2.28,2.23-5.03,3.87-7.84c1.54,3.23,3.92,6.88,7.43,9.26c-1.57,1.68-2.76,3.36-3.64,4.89
			C233.15,105.7,230.69,103.48,228.95,101.52z M253.87,114.44c-6.81-1.52-12.05-3.64-16.08-5.93c0.87-1.5,2.06-3.18,3.66-4.85
			c2.58,1.42,5.69,2.16,9.46,1.65c3.99-0.54,7.32-0.52,10.14,0.05C257.03,108.78,254.69,112.84,253.87,114.44z M268.37,107.23
			c-1.27-1.04-2.72-1.84-4.32-2.43c2.72-1.83,6.05-3.21,10.05-3.43c1.31-0.07,2.59-0.21,3.83-0.38c0.2,0.25,0.41,0.5,0.59,0.78
			c2.08,3.22,1.95,7.69-0.37,13.29c-1.57,0.05-2.96,0.37-4.18,0.85C272.67,112.09,270.83,109.25,268.37,107.23z M274.37,117.22
			c0.93-0.37,1.98-0.65,3.14-0.76c-0.1,0.21-0.17,0.41-0.28,0.63c-0.84,1.74-1.42,3.43-1.78,5.09
			C275.17,120.38,274.81,118.73,274.37,117.22z M284.43,118c-1.92,3.29-2.97,6.84-3.02,10.26c-0.01,0.39,0,0.78,0.02,1.17
			c-1.64,0.22-3.26,0.24-4.5,0.19c-1.06-3.62-0.55-7.63,1.53-11.94c0.21-0.44,0.37-0.85,0.56-1.27c0.74,0.02,1.51,0.11,2.33,0.28
			c1.29,0.27,2.48,0.38,3.6,0.39C284.78,117.39,284.62,117.69,284.43,118z M285.73,115.71c-1.24,0.05-2.6-0.05-4.1-0.36
			c-0.7-0.15-1.37-0.23-2.02-0.27c2.3-5.81,2.32-10.54,0.04-14.06c-0.06-0.1-0.14-0.19-0.21-0.28c4.92-0.87,9.16-2.46,12.35-4.2
			C292.47,100.85,290.47,107.17,285.73,115.71z"/>
		<path class="st10" d="M255.81,51.07c0,0,7.89,0.85,10.32,17.11c0.23,1.53,0.35,4.46,0.67,5.97c0.87,4.11,1.72,2.76,18.43,5.87
			c22.28,4.14,12.72,27.22,4.79,42.72c-7.94,15.5,5.89,18.69,5.89,18.69s-14.74,5.63-21.54-12.76c0,0-4.72-13.32-23-12.22
			c-18.28,1.1-28.91-12.51-29.29-17.59L255.81,51.07z"/>
	</g>
	<ellipse cx="185.2" cy="308.17" rx="22.18" ry="4.25"/>
	<ellipse cx="318.43" cy="308.17" rx="59.49" ry="4.25"/>
	<g>
		<path class="st18" d="M187.86,140.33c-0.14,1.52-0.58,3.7,0.72,5.73c1.3,2.03,14.72,22.98,17.76,23.42
			c3.04,0.43,0.94-12.14,0.94-12.14s-11.53-12.4-12.83-12.72c0,0,2.4-2.18,3.5-4.09c1.71-2.96,5.38-8.82,3.42-9.11
			c-1.96-0.29-3.54,3.37-3.76,3.87"/>
		<path class="st18" d="M237.81,105.2c0,0-5.11,5.33-5.11,6.74c0,1.41,0,5.76-0.65,6.52s-1.74,5.76-0.11,10.33
			c1.63,4.57,0.87,5.98,4.35,5.55c3.48-0.43,4.35-0.87,4.35-0.87l-0.54,3.59c0,0-3.92,9.57-1.78,9.56
			c1.18-0.01,9.53-4.43,10.89-4.48c4.22-0.13,7.01-5.64,6.44-6.61c-1.09-1.85-2.61-4.13-2.17-7.83c0.43-3.7,9.57-8.26,9.57-8.26
			S244.88,97.81,237.81,105.2z"/>
		<path class="st14" d="M323.12,252.68c0,0-5.11-14.95-6.57-18.01c-1.46-3.07-2.13-11.35-3.86-12.46
			c-1.72-1.11-7.17,4.85-10.11,6.05c-2.94,1.2,2.6,11.72,2.6,11.72s3.93-2.66,5.46,2.35C312.17,247.34,313.77,254.61,323.12,252.68z
			"/>
		<path class="st18" d="M278.05,165.34c0,0-3.77,10-4.2,10.15c-0.43,0.15-4.06-1.3-6.81,1.88c-2.75,3.19-4.06,5.65,0,8.26
			c4.06,2.61,7.54,4.64,10.15,0.43c2.61-4.2,1.45-5.65,2.03-6.23c0.58-0.58,12.47-13.63,10.87-17.83
			C288.49,157.8,278.05,165.34,278.05,165.34z"/>
		<path class="st18" d="M194.53,143.41c0.21-0.41,3.16-2.12,2.86-6.32c-0.31-4.2-2.3-6.85-6.27-4.1c-4.58,3.17-6.84,5.7-5.58,8.77
			c1.87,4.58,3.27,5.58,5.13,7.52"/>
		<path class="st19" d="M234.31,109.32c0,0-5.6-3.21-3.21-5.6s1.41-8.16,2.72-8.7c0,0,0.87,5.98,2.39,4.24s3.91-5,7.61-4.35
			s5.65,4.46,8.05,4.35c2.39-0.11,3.7,0,4.78,2.61c1.09,2.61,5.98-0.43,7.72,2.83c0,0-6.31-0.22-3.7,1.74
			c2.61,1.96,2.61,0.43,3.81,3.91c1.2,3.48,5,5,5.33,5.33c0.33,0.33-5.55,1.63-4.68,5s-5.65,4.46-6.2,6.31s-4.68,2.94-3.7,4.68
			c0.98,1.74-0.43,3.53-2.28,1.25s-1.63-7.67,0.43-9.08s5.76-4.57,4.02-6.74c-1.74-2.17-3.81-2.5-7.5,3.59l-1.09-0.33
			c0,0,2.66-11.2-0.38-13.7C245.4,104.15,237.57,103.66,234.31,109.32z"/>
		<path class="st19" d="M239.64,110.84c0,0,0.16,2.07,0.98,1.69c0.82-0.38,1.63-2.01,3.81-1.2c2.17,0.82,3.75,1.63,3.75,1.63
			s-2.66-2.83-4.24-2.88C242.36,110.02,239.64,110.84,239.64,110.84z"/>
		<path class="st19" d="M232.63,111.98c0,0,2.45-0.65,3.97,0.38l-0.05,0.92c0,0-1.58-0.54-2.88-0.22S232.63,111.98,232.63,111.98z"
			/>
		<path class="st20" d="M166.98,282.64c0,0-0.72,0.29-0.58,1.3c0.14,1.01,20.89,24.14,21.89,23.2c3.2-3.01,1.16,0.14-0.87-2.75
			C185.39,301.49,178.14,289.31,166.98,282.64z"/>
		<path class="st20" d="M322.76,252.79c0,0,0.78,0.05,1.09-0.93c0.31-0.98-8.41-30.8-9.72-30.38c-4.18,1.33-0.98-0.63-0.41,2.86
			C314.29,227.83,315.57,241.95,322.76,252.79z"/>
		<path class="st14" d="M166.98,282.64c0,0,10.87,11.45,13.48,13.63c2.61,2.17,6.67,9.42,8.7,9.71c2.03,0.29,4.49-7.39,6.67-9.71
			c2.17-2.32-7.25-9.57-7.25-9.57s-2.46,4.06-5.94,0.14S174.66,276.98,166.98,282.64z"/>
		<path class="st3" d="M231.07,196.51c0,0-12.32,15.66-14.21,17.98c-1.88,2.32-19.14,21.17-20.59,28.27s-5.8,40.74-7.97,42.05
			c-2.17,1.3-2.9,0.87,3.19,5.94c6.09,5.07,10,8.99,10.44,6.81c0.43-2.17-0.58-8.55,0.58-10.73c1.16-2.17,4.93-13.48,3.19-22.33
			c0,0,4.64-7.39,5.36-11.74s6.38-13.92,24.65-27.55c0,0,15.08,29.43,23.05,37.84c7.97,8.41,9.57,10.29,14.06,4.49
			s22.18-20.15,32.77-22.04c0,0,0.14-13.63-3.77-18.56c0,0-26.24,21.89-29.72,20.44c-3.48-1.45-8.26-3.91-8.55-12.32
			c-0.29-8.41-2.32-37.41-5.36-39.87C258.18,195.21,241.8,200.57,231.07,196.51z"/>
		<path class="st21" d="M206.42,155.77c0,0,1.45,13.92,0,14.35c-1.45,0.43,6.67,2.17,7.39,0.43s1.3-3.62,3.48-2.75
			c2.17,0.87,10.58-3.62,10.58-3.62s-1.45,22.33,3.19,32.33c4.64,10,27.11-1.3,27.11-1.3s2.32-38.42,6.09-41.32
			c0,0,6.81,5.94,11.31,6.23c0,0-1.74,1.01-1.16,4.06c0.58,3.04,5.07,3.33,12.18,1.01c7.1-2.32,4.35-7.39,3.77-9.42
			c0,0-0.72,0.43-1.3-0.14c-0.58-0.58-16.24-11.6-20.15-16.24s-6.81-4.78-13.77-4.2c-3.48,0.29-12.38,10.44-15.41,10.66
			c-3.03,0.22,1.15-9.75,0.35-8.88c-1.08,1.18-14.52,13.01-17.42,13.88s-8.55,4.93-8.84,3.62S207.14,152.87,206.42,155.77z"/>
	</g>
	<g>
		<g>
			
				<rect x="12.44" y="278.53" transform="matrix(0.9835 -0.1811 0.1811 0.9835 -51.2516 10.3366)" class="st22" width="37.05" height="14.49"/>
			<path class="st8" d="M35.81,280.5c-0.81-0.43-1.76-0.71-2.76-0.85s-2.06-0.14-3.16,0.06c-1.1,0.2-2.01,0.56-2.97,1.06
				c-0.73,0.46-1.51,1.05-2.11,1.75c-0.6,0.69-1.03,1.48-1.28,2.31c-0.25,0.82-0.34,1.68-0.18,2.55c0.15,0.81,0.54,1.58,1.08,2.32
				c0.53,0.68,1.2,1.2,2.02,1.7c0.81,0.43,1.76,0.71,2.76,0.85c1,0.14,2.06,0.14,3.16-0.06c1.1-0.2,2.01-0.56,2.97-1.06
				c0.88-0.49,1.59-1.07,2.27-1.78c0.6-0.69,1.03-1.48,1.28-2.31c0.25-0.82,0.34-1.68,0.18-2.55c-0.15-0.81-0.54-1.58-1.08-2.32
				C37.29,281.52,36.62,280.93,35.81,280.5z M32.05,290.95c-3.53,0.65-6.78-1.08-7.3-3.89c-0.52-2.81,1.89-5.59,5.43-6.24
				c3.53-0.65,6.78,1.08,7.3,3.89C38,287.53,35.58,290.3,32.05,290.95z"/>
			<path class="st8" d="M32.97,285.35c-0.34-0.07-0.99-0.08-1.97-0.09c-0.9-0.03-1.55-0.04-1.74-0.2c-0.26-0.08-0.38-0.32-0.42-0.51
				c-0.05-0.25,0.06-0.53,0.34-0.77c0.28-0.25,0.73-0.46,1.43-0.59c0.63-0.12,1.12-0.08,1.55,0.04c0.35,0.13,0.65,0.46,0.72,0.84
				l1.01-0.25c-0.07-0.38-0.3-0.72-0.59-0.99c-0.29-0.27-0.73-0.45-1.23-0.49c-0.34-0.07-0.66-0.07-1.06,0l-0.15-0.81l-1.02,0.19
				l0.15,0.81c-0.39,0.07-0.68,0.26-1.07,0.39c-0.45,0.21-0.72,0.52-0.89,0.88c-0.18,0.36-0.28,0.7-0.22,1.01
				c0.06,0.31,0.18,0.55,0.46,0.76c0.2,0.22,0.55,0.35,0.98,0.47c0.34,0.07,0.91,0.09,1.73,0.13c0.81-0.02,1.3,0.02,1.55,0.04
				c0.34,0.07,0.67,0.13,0.85,0.23c0.18,0.1,0.29,0.27,0.34,0.52c0.03,0.19-0.01,0.39-0.13,0.61s-0.34,0.39-0.63,0.57
				s-0.68,0.26-1.08,0.33c-0.47,0.09-0.88,0.1-1.29,0.04c-0.42-0.05-0.69-0.2-0.96-0.34c-0.19-0.16-0.41-0.44-0.46-0.76l-1.01,0.25
				c0.08,0.44,0.31,0.78,0.69,1.1c0.38,0.32,0.82,0.5,1.33,0.6c0.34,0.07,0.74,0.06,1.15,0.05l0.15,0.81l1.02-0.19l-0.15-0.81
				c0.47-0.09,0.92-0.3,1.29-0.5c0.44-0.27,0.78-0.6,0.96-0.95c0.18-0.36,0.28-0.7,0.21-1.07s-0.21-0.67-0.49-0.88
				C33.91,285.63,33.47,285.45,32.97,285.35z"/>
			<path class="st8" d="M47.74,274.74l-36.13,6.65c-0.47,0.09-0.74,0.39-0.68,0.71l2.68,14.57c0.06,0.31,0.5,0.49,0.89,0.42
				l36.13-6.65c0.47-0.09,0.74-0.39,0.68-0.71l-2.7-14.63C48.57,274.85,48.13,274.67,47.74,274.74z M48.89,285.39
				c-2.94,0.8-5.06,2.94-4.99,5.12l-23.09,4.25c-0.78-2.05-3.45-3.31-6.48-3.01l-0.98-5.32c2.94-0.8,5.06-2.94,4.99-5.12l23.01-4.24
				c0.78,2.05,3.45,3.31,6.48,3.01l0.98,5.32L48.89,285.39z"/>
		</g>
		<g>
			
				<rect x="78.59" y="262.08" transform="matrix(0.561 0.8278 -0.8278 0.561 265.5841 37.8459)" class="st22" width="37.05" height="14.49"/>
			<path class="st8" d="M103.89,271.63c0.07-0.92-0.05-1.89-0.33-2.86c-0.27-0.97-0.7-1.94-1.33-2.86
				c-0.63-0.93-1.32-1.61-2.17-2.29c-0.71-0.48-1.57-0.96-2.45-1.23c-0.88-0.27-1.77-0.34-2.63-0.25c-0.86,0.1-1.67,0.36-2.41,0.86
				c-0.68,0.46-1.23,1.13-1.69,1.92c-0.41,0.76-0.62,1.58-0.74,2.53c-0.07,0.92,0.05,1.89,0.33,2.86c0.27,0.97,0.7,1.94,1.33,2.86
				c0.63,0.93,1.32,1.61,2.17,2.29c0.8,0.62,1.62,1.03,2.54,1.37c0.88,0.27,1.77,0.34,2.63,0.25c0.86-0.1,1.67-0.36,2.41-0.86
				c0.68-0.46,1.23-1.13,1.69-1.92C103.55,273.4,103.82,272.54,103.89,271.63z M92.81,272.39c-2.02-2.98-1.73-6.64,0.63-8.25
				c2.37-1.61,5.88-0.51,7.89,2.47c2.02,2.98,1.73,6.64-0.63,8.25S94.82,275.36,92.81,272.39z"/>
			<path class="st8" d="M98.3,270.98c-0.07-0.34-0.33-0.94-0.71-1.84c-0.33-0.83-0.59-1.43-0.52-1.67
				c-0.03-0.27,0.14-0.48,0.29-0.59c0.21-0.14,0.51-0.15,0.85,0c0.34,0.16,0.71,0.48,1.11,1.08c0.36,0.53,0.52,1,0.59,1.43
				c0.02,0.37-0.16,0.78-0.48,1l0.64,0.82c0.32-0.21,0.54-0.56,0.67-0.94c0.13-0.38,0.12-0.85-0.05-1.32
				c-0.07-0.34-0.2-0.64-0.42-0.97l0.68-0.46l-0.58-0.86l-0.68,0.46c-0.22-0.33-0.51-0.52-0.79-0.82c-0.37-0.33-0.76-0.45-1.16-0.47
				c-0.4-0.02-0.75,0.03-1.01,0.2s-0.43,0.39-0.51,0.73c-0.12,0.27-0.1,0.65-0.03,1.08c0.07,0.34,0.28,0.87,0.57,1.64
				c0.34,0.73,0.51,1.2,0.59,1.43c0.07,0.34,0.15,0.67,0.13,0.88c-0.02,0.2-0.13,0.38-0.34,0.52c-0.16,0.11-0.36,0.15-0.61,0.12
				c-0.25-0.03-0.49-0.15-0.77-0.35c-0.28-0.19-0.51-0.52-0.73-0.85c-0.27-0.4-0.44-0.76-0.56-1.16c-0.12-0.4-0.1-0.71-0.07-1.01
				c0.07-0.24,0.24-0.55,0.51-0.73l-0.64-0.82c-0.37,0.25-0.59,0.6-0.73,1.07s-0.12,0.95-0.01,1.46c0.07,0.34,0.25,0.7,0.42,1.07
				l-0.68,0.46l0.58,0.86l0.68-0.46c0.27,0.4,0.64,0.72,0.97,0.98c0.43,0.29,0.86,0.48,1.26,0.5c0.4,0.02,0.75-0.03,1.07-0.24
				c0.32-0.21,0.53-0.46,0.61-0.8C98.43,271.95,98.41,271.48,98.3,270.98z"/>
			<path class="st8" d="M113.95,280.24l-20.61-30.41c-0.27-0.4-0.66-0.52-0.92-0.34l-12.27,8.31c-0.26,0.18-0.25,0.65-0.03,0.98
				l20.61,30.41c0.27,0.4,0.66,0.52,0.92,0.34l12.32-8.35C114.19,281.05,114.18,280.57,113.95,280.24z M104.66,285.58
				c-1.91-2.37-4.72-3.46-6.69-2.51L84.8,263.63c1.57-1.54,1.64-4.49,0.15-7.15l4.47-3.03c1.91,2.37,4.72,3.46,6.69,2.51
				l13.13,19.37c-1.57,1.54-1.64,4.49-0.15,7.15l-4.47,3.03L104.66,285.58z"/>
		</g>
		<g>
			
				<rect x="28.18" y="220.71" transform="matrix(0.7967 -0.6044 0.6044 0.7967 -128.4133 77.2221)" class="st22" width="44.78" height="17.51"/>
			<path class="st8" d="M52.92,221.14c-1.11-0.03-2.28,0.19-3.44,0.58s-2.29,0.97-3.37,1.79c-1.08,0.82-1.86,1.7-2.63,2.77
				c-0.54,0.89-1.06,1.96-1.33,3.04s-0.3,2.16-0.13,3.18c0.17,1.03,0.55,2,1.2,2.85c0.6,0.8,1.44,1.42,2.43,1.92
				c0.94,0.44,1.94,0.65,3.1,0.73c1.11,0.03,2.28-0.19,3.44-0.58s2.29-0.97,3.37-1.79s1.86-1.7,2.63-2.77
				c0.69-1.01,1.13-2.02,1.49-3.15c0.27-1.08,0.3-2.16,0.13-3.18c-0.17-1.03-0.55-2-1.2-2.85c-0.6-0.8-1.44-1.42-2.43-1.92
				C55.07,221.43,54.03,221.16,52.92,221.14z M54.55,234.47c-3.46,2.63-7.9,2.52-9.99-0.23s-0.99-7.06,2.47-9.69
				c3.46-2.63,7.9-2.52,9.99,0.23C59.1,227.54,58.01,231.84,54.55,234.47z"/>
			<path class="st8" d="M52.49,227.92c-0.4,0.11-1.11,0.46-2.17,0.97c-0.99,0.46-1.69,0.8-1.99,0.74c-0.32,0.05-0.59-0.13-0.73-0.32
				c-0.19-0.24-0.22-0.61-0.05-1.02s0.54-0.89,1.23-1.41c0.62-0.47,1.17-0.69,1.69-0.8c0.45-0.05,0.96,0.14,1.24,0.51l0.95-0.82
				c-0.28-0.37-0.71-0.62-1.17-0.75s-1.03-0.08-1.59,0.14c-0.4,0.11-0.75,0.28-1.14,0.57l-0.6-0.8l-1,0.76l0.6,0.8
				c-0.38,0.29-0.6,0.65-0.94,1c-0.37,0.47-0.49,0.95-0.49,1.43s0.08,0.9,0.31,1.21c0.23,0.31,0.5,0.49,0.91,0.56
				c0.34,0.13,0.79,0.08,1.31-0.03c0.4-0.11,1.03-0.4,1.94-0.8c0.86-0.46,1.42-0.69,1.69-0.8c0.4-0.11,0.8-0.22,1.05-0.22
				c0.25,0.01,0.46,0.13,0.65,0.38c0.14,0.18,0.2,0.43,0.19,0.73c-0.01,0.3-0.15,0.6-0.37,0.95c-0.21,0.36-0.6,0.65-0.98,0.94
				c-0.46,0.35-0.89,0.58-1.37,0.75c-0.48,0.17-0.85,0.16-1.22,0.15c-0.29-0.07-0.68-0.26-0.91-0.56L48.59,233
				c0.33,0.43,0.76,0.68,1.34,0.81s1.16,0.09,1.76-0.08c0.4-0.11,0.83-0.34,1.26-0.57l0.6,0.8l1-0.76l-0.6-0.8
				c0.46-0.35,0.83-0.82,1.12-1.24c0.32-0.53,0.52-1.07,0.52-1.55c0-0.48-0.08-0.9-0.36-1.27c-0.28-0.37-0.59-0.62-1-0.69
				C53.66,227.71,53.09,227.76,52.49,227.92z"/>
			<path class="st8" d="M62.67,208.43l-35.38,26.84c-0.46,0.35-0.58,0.83-0.35,1.13l10.82,14.27c0.23,0.31,0.8,0.26,1.19-0.03
				l35.38-26.84c0.46-0.35,0.58-0.83,0.35-1.13l-10.87-14.33C63.62,208.09,63.05,208.14,62.67,208.43z M69.7,219.3
				c-2.74,2.46-3.87,5.92-2.59,8.24L44.5,244.7c-1.96-1.79-5.53-1.69-8.63,0.28l-3.95-5.2c2.74-2.46,3.87-5.92,2.59-8.24l22.53-17.1
				c1.96,1.79,5.53,1.69,8.63-0.28l3.95,5.2L69.7,219.3z"/>
		</g>
		<g>
			
				<rect x="37.51" y="129.23" transform="matrix(0.9883 -0.1527 0.1527 0.9883 -20.1661 10.0953)" class="st22" width="36.25" height="14.17"/>
			<path class="st8" d="M60.51,131.29c-0.78-0.45-1.7-0.75-2.67-0.91c-0.97-0.16-2.01-0.19-3.09-0.03
				c-1.08,0.17-1.98,0.49-2.94,0.96c-0.72,0.43-1.51,0.99-2.12,1.65c-0.61,0.66-1.05,1.42-1.32,2.22c-0.27,0.8-0.38,1.63-0.25,2.49
				c0.12,0.8,0.48,1.56,0.99,2.3c0.5,0.68,1.14,1.21,1.93,1.72c0.78,0.45,1.7,0.75,2.67,0.91c0.97,0.16,2.01,0.19,3.09,0.03
				c1.08-0.17,1.98-0.49,2.94-0.96c0.88-0.45,1.58-1,2.27-1.67c0.61-0.66,1.05-1.42,1.32-2.22c0.27-0.8,0.38-1.63,0.25-2.49
				c-0.12-0.8-0.48-1.56-0.99-2.3C61.94,132.33,61.29,131.73,60.51,131.29z M56.54,141.41c-3.48,0.54-6.6-1.25-7.02-4.01
				c-0.43-2.77,2.01-5.41,5.49-5.95s6.6,1.25,7.02,4.01C62.45,138.23,60.02,140.87,56.54,141.41z"/>
			<path class="st8" d="M57.6,135.96c-0.33-0.08-0.96-0.1-1.92-0.14c-0.88-0.05-1.51-0.08-1.7-0.24c-0.25-0.09-0.37-0.32-0.39-0.51
				c-0.04-0.25,0.08-0.52,0.36-0.75s0.72-0.43,1.42-0.53c0.62-0.1,1.1-0.04,1.51,0.08c0.34,0.14,0.63,0.47,0.68,0.84l0.99-0.22
				c-0.06-0.37-0.27-0.71-0.55-0.99c-0.28-0.27-0.7-0.46-1.19-0.51c-0.33-0.08-0.65-0.09-1.03-0.03l-0.12-0.8l-1,0.16l0.12,0.8
				c-0.39,0.06-0.68,0.23-1.05,0.35c-0.44,0.19-0.72,0.49-0.9,0.83c-0.18,0.34-0.29,0.67-0.24,0.98s0.16,0.54,0.43,0.75
				c0.19,0.22,0.53,0.36,0.94,0.48c0.33,0.08,0.89,0.11,1.69,0.18c0.79,0,1.27,0.05,1.51,0.08c0.33,0.08,0.66,0.15,0.83,0.25
				s0.28,0.27,0.32,0.52c0.03,0.18-0.02,0.38-0.15,0.59s-0.34,0.37-0.63,0.54s-0.68,0.23-1.06,0.29c-0.46,0.07-0.86,0.07-1.26,0.01
				c-0.41-0.06-0.67-0.21-0.93-0.36c-0.18-0.16-0.38-0.44-0.43-0.75l-0.99,0.22c0.07,0.43,0.28,0.78,0.64,1.1s0.79,0.51,1.28,0.62
				c0.33,0.08,0.72,0.08,1.12,0.08l0.12,0.8l1-0.16l-0.12-0.8c0.46-0.07,0.91-0.27,1.27-0.45c0.43-0.26,0.78-0.56,0.97-0.9
				c0.18-0.34,0.29-0.67,0.23-1.04c-0.06-0.37-0.18-0.66-0.45-0.87C58.51,136.26,58.09,136.07,57.6,135.96z"/>
			<path class="st8" d="M72.34,126l-35.52,5.49c-0.46,0.07-0.73,0.37-0.69,0.67l2.21,14.33c0.05,0.31,0.47,0.49,0.86,0.43
				l35.52-5.49c0.46-0.07,0.73-0.37,0.69-0.67l-2.22-14.39C73.16,126.12,72.73,125.94,72.34,126z M73.17,136.45
				c-2.9,0.7-5.03,2.73-5.02,4.87l-22.7,3.51c-0.71-2.03-3.28-3.33-6.26-3.13l-0.81-5.23c2.9-0.7,5.03-2.73,5.02-4.87l22.63-3.5
				c0.71,2.03,3.28,3.33,6.26,3.13l0.81,5.23L73.17,136.45z"/>
		</g>
		<g>
			
				<rect x="141.21" y="69.16" transform="matrix(0.9504 -0.3111 0.3111 0.9504 -15.4404 51.6373)" class="st22" width="25.89" height="10.12"/>
			<path class="st8" d="M157.02,70.11c-0.6-0.22-1.28-0.33-1.99-0.33c-0.71,0-1.44,0.1-2.18,0.34c-0.74,0.24-1.34,0.58-1.96,1.02
				c-0.46,0.38-0.95,0.87-1.3,1.41s-0.57,1.12-0.67,1.72s-0.08,1.19,0.11,1.79c0.18,0.55,0.52,1.05,0.96,1.51
				c0.43,0.42,0.94,0.72,1.56,0.99c0.6,0.22,1.28,0.33,1.99,0.33c0.71,0,1.44-0.1,2.18-0.34c0.74-0.24,1.34-0.58,1.96-1.02
				c0.57-0.42,1-0.89,1.41-1.44c0.35-0.54,0.57-1.12,0.67-1.72c0.1-0.59,0.08-1.19-0.11-1.79c-0.18-0.55-0.52-1.05-0.96-1.51
				C158.14,70.68,157.62,70.34,157.02,70.11z M155.39,77.71c-2.39,0.78-4.79-0.11-5.42-2.01c-0.62-1.9,0.79-4.05,3.18-4.83
				c2.39-0.78,4.79,0.11,5.42,2.01C159.19,74.78,157.78,76.93,155.39,77.71z"/>
			<path class="st8" d="M155.5,73.74c-0.24-0.02-0.69,0.04-1.37,0.12c-0.63,0.06-1.08,0.12-1.22,0.03c-0.19-0.03-0.3-0.18-0.34-0.31
				c-0.06-0.17,0-0.37,0.17-0.57s0.46-0.38,0.94-0.54c0.42-0.14,0.77-0.16,1.08-0.12c0.25,0.06,0.5,0.26,0.58,0.51l0.68-0.27
				c-0.08-0.25-0.27-0.47-0.5-0.63c-0.23-0.16-0.55-0.24-0.89-0.22c-0.24-0.02-0.47,0.01-0.73,0.1l-0.18-0.55l-0.69,0.23l0.18,0.55
				c-0.27,0.09-0.45,0.24-0.7,0.37c-0.29,0.19-0.45,0.43-0.54,0.69c-0.09,0.26-0.13,0.51-0.06,0.72c0.07,0.21,0.18,0.36,0.39,0.48
				c0.16,0.13,0.42,0.19,0.72,0.23c0.24,0.02,0.64-0.02,1.21-0.07c0.56-0.09,0.9-0.11,1.08-0.12c0.24,0.02,0.48,0.03,0.61,0.08
				c0.13,0.05,0.23,0.16,0.28,0.33c0.04,0.13,0.03,0.27-0.03,0.43c-0.06,0.16-0.2,0.3-0.38,0.45c-0.18,0.15-0.45,0.24-0.72,0.33
				c-0.32,0.1-0.6,0.15-0.89,0.15c-0.29,0-0.49-0.07-0.69-0.15c-0.15-0.09-0.32-0.27-0.39-0.48l-0.68,0.27
				c0.1,0.3,0.29,0.51,0.58,0.7c0.3,0.18,0.62,0.27,0.98,0.29c0.24,0.02,0.52-0.03,0.8-0.07l0.18,0.55l0.69-0.23l-0.18-0.55
				c0.32-0.1,0.61-0.29,0.85-0.46c0.28-0.23,0.49-0.49,0.58-0.75c0.09-0.26,0.13-0.51,0.04-0.76c-0.08-0.25-0.21-0.45-0.42-0.56
				C156.18,73.85,155.86,73.76,155.5,73.74z"/>
			<path class="st8" d="M164.74,65.01L140.34,73c-0.32,0.1-0.48,0.34-0.41,0.55l3.22,9.84c0.07,0.21,0.39,0.29,0.65,0.21l24.4-7.99
				c0.32-0.1,0.48-0.34,0.41-0.55l-3.24-9.88C165.33,65.01,165.01,64.92,164.74,65.01z M166.54,72.28
				c-1.96,0.83-3.23,2.51-2.97,4.01l-15.6,5.11c-0.74-1.35-2.7-1.97-4.77-1.48l-1.18-3.59c1.96-0.83,3.23-2.51,2.97-4.01l15.54-5.09
				c0.74,1.35,2.7,1.97,4.77,1.48l1.18,3.59L166.54,72.28z"/>
		</g>
		<g>
			
				<rect x="259.66" y="34.94" transform="matrix(0.9021 -0.4316 0.4316 0.9021 9.4338 121.5804)" class="st22" width="25.89" height="10.12"/>
			<path class="st8" d="M274.91,35.56c-0.63-0.14-1.31-0.16-2.01-0.07c-0.7,0.09-1.41,0.28-2.12,0.62s-1.25,0.75-1.81,1.26
				c-0.41,0.44-0.83,0.99-1.11,1.56c-0.28,0.58-0.42,1.19-0.44,1.79s0.08,1.2,0.35,1.76c0.25,0.52,0.65,0.97,1.15,1.37
				c0.48,0.36,1.03,0.59,1.67,0.78c0.63,0.14,1.31,0.16,2.01,0.07c0.7-0.09,1.41-0.28,2.12-0.62c0.7-0.34,1.25-0.75,1.81-1.26
				c0.51-0.49,0.88-1.01,1.21-1.61c0.28-0.58,0.42-1.19,0.44-1.79s-0.08-1.2-0.35-1.76c-0.25-0.52-0.65-0.97-1.15-1.37
				C276.1,35.97,275.54,35.7,274.91,35.56z M274.28,43.3c-2.27,1.08-4.77,0.51-5.63-1.3c-0.86-1.8,0.26-4.11,2.52-5.2
				s4.77-0.51,5.63,1.3C277.67,39.9,276.55,42.21,274.28,43.3z"/>
			<path class="st8" d="M273.88,39.35c-0.24,0.02-0.68,0.13-1.34,0.3c-0.61,0.14-1.05,0.26-1.21,0.19
				c-0.19-0.01-0.32-0.14-0.37-0.26c-0.08-0.16-0.05-0.37,0.09-0.59c0.14-0.22,0.41-0.44,0.86-0.66c0.4-0.19,0.74-0.26,1.05-0.26
				c0.26,0.02,0.53,0.19,0.64,0.43l0.64-0.35c-0.12-0.24-0.33-0.43-0.58-0.56s-0.58-0.17-0.92-0.1c-0.24,0.02-0.46,0.07-0.71,0.19
				l-0.25-0.52l-0.65,0.31l0.25,0.52c-0.25,0.12-0.41,0.3-0.65,0.46c-0.26,0.22-0.39,0.48-0.44,0.75s-0.06,0.52,0.04,0.72
				c0.1,0.2,0.22,0.34,0.45,0.42c0.18,0.11,0.44,0.14,0.75,0.14c0.24-0.02,0.63-0.1,1.19-0.23c0.54-0.16,0.88-0.23,1.05-0.26
				c0.24-0.02,0.48-0.03,0.62,0s0.25,0.13,0.32,0.29c0.06,0.12,0.06,0.26,0.02,0.43c-0.04,0.17-0.16,0.32-0.32,0.5
				c-0.16,0.18-0.41,0.3-0.67,0.42c-0.3,0.14-0.57,0.22-0.86,0.27c-0.29,0.04-0.5-0.01-0.71-0.06c-0.16-0.07-0.35-0.22-0.45-0.42
				l-0.64,0.35c0.13,0.28,0.35,0.47,0.67,0.62c0.32,0.14,0.64,0.18,1,0.16c0.24-0.02,0.51-0.1,0.78-0.18l0.25,0.52l0.65-0.31
				l-0.25-0.52c0.3-0.14,0.57-0.37,0.78-0.57c0.24-0.26,0.42-0.55,0.47-0.82s0.06-0.52-0.06-0.76c-0.12-0.24-0.26-0.42-0.49-0.5
				C274.57,39.37,274.24,39.33,273.88,39.35z"/>
			<path class="st8" d="M281.91,29.5l-23.16,11.08c-0.3,0.14-0.43,0.4-0.33,0.6l4.47,9.34c0.1,0.2,0.42,0.24,0.68,0.12l23.16-11.08
				c0.3-0.14,0.43-0.4,0.33-0.6l-4.49-9.38C282.49,29.42,282.17,29.38,281.91,29.5z M284.63,36.47c-1.84,1.08-2.88,2.91-2.43,4.36
				l-14.8,7.08c-0.9-1.24-2.93-1.6-4.92-0.85l-1.63-3.41c1.84-1.08,2.88-2.91,2.43-4.36l14.75-7.06c0.9,1.24,2.93,1.6,4.92,0.85
				l1.63,3.41L284.63,36.47z"/>
		</g>
		<g>
			
				<rect x="301.6" y="98.66" transform="matrix(0.953 -0.3031 0.3031 0.953 -16.9667 101.6888)" class="st22" width="35.01" height="13.69"/>
			<path class="st8" d="M323.01,99.98c-0.81-0.31-1.73-0.46-2.68-0.47c-0.95-0.01-1.94,0.11-2.95,0.43
				c-1.01,0.32-1.82,0.77-2.66,1.35c-0.63,0.52-1.29,1.17-1.78,1.89s-0.79,1.51-0.93,2.31c-0.14,0.8-0.12,1.61,0.14,2.42
				c0.24,0.74,0.69,1.42,1.29,2.05c0.58,0.57,1.26,0.99,2.09,1.35c0.81,0.31,1.73,0.46,2.68,0.47s1.94-0.11,2.95-0.43
				s1.82-0.77,2.66-1.35c0.77-0.56,1.36-1.19,1.92-1.93c0.48-0.72,0.79-1.51,0.93-2.31c0.14-0.8,0.12-1.61-0.13-2.42
				c-0.24-0.74-0.69-1.42-1.29-2.05C324.53,100.76,323.82,100.29,323.01,99.98z M320.73,110.22c-3.24,1.03-6.48-0.21-7.3-2.79
				c-0.82-2.58,1.11-5.46,4.35-6.49c3.24-1.03,6.48,0.21,7.3,2.79C325.9,106.31,323.96,109.2,320.73,110.22z"/>
			<path class="st8" d="M320.92,104.87c-0.32-0.02-0.94,0.05-1.85,0.15c-0.85,0.08-1.46,0.15-1.66,0.02
				c-0.25-0.05-0.4-0.25-0.45-0.42c-0.07-0.23,0-0.5,0.23-0.77c0.23-0.26,0.63-0.52,1.28-0.72c0.58-0.18,1.04-0.21,1.46-0.15
				c0.34,0.08,0.67,0.36,0.78,0.7l0.92-0.35c-0.11-0.34-0.36-0.64-0.67-0.86s-0.74-0.33-1.21-0.31c-0.32-0.02-0.63,0.01-0.99,0.13
				l-0.24-0.74l-0.93,0.3l0.24,0.74c-0.36,0.11-0.61,0.32-0.95,0.49c-0.4,0.25-0.61,0.57-0.73,0.93s-0.18,0.69-0.09,0.97
				c0.09,0.29,0.24,0.49,0.52,0.65c0.22,0.18,0.56,0.26,0.97,0.32c0.32,0.02,0.86-0.02,1.64-0.08c0.76-0.11,1.22-0.14,1.46-0.15
				c0.32,0.02,0.65,0.05,0.83,0.11s0.31,0.22,0.38,0.45c0.05,0.17,0.04,0.37-0.05,0.58c-0.09,0.22-0.27,0.4-0.52,0.61
				c-0.25,0.21-0.61,0.32-0.97,0.43c-0.43,0.14-0.81,0.19-1.21,0.19c-0.4,0-0.67-0.1-0.94-0.21c-0.2-0.13-0.43-0.37-0.52-0.65
				l-0.92,0.35c0.13,0.4,0.38,0.7,0.78,0.95c0.4,0.25,0.83,0.37,1.32,0.4c0.32,0.02,0.7-0.03,1.08-0.09l0.24,0.74l0.93-0.3
				l-0.24-0.74c0.43-0.14,0.83-0.39,1.15-0.62c0.38-0.31,0.66-0.65,0.79-1.01s0.18-0.69,0.07-1.03s-0.27-0.61-0.56-0.77
				C321.84,105.02,321.41,104.9,320.92,104.87z"/>
			<path class="st8" d="M333.52,93.17l-33.08,10.52c-0.43,0.14-0.65,0.46-0.56,0.74l4.24,13.34c0.09,0.29,0.52,0.4,0.88,0.29
				l33.08-10.52c0.43-0.14,0.65-0.46,0.56-0.74l-4.26-13.4C334.31,93.17,333.88,93.05,333.52,93.17z M335.86,103.02
				c-2.66,1.1-4.4,3.35-4.07,5.39l-21.14,6.73c-0.98-1.83-3.63-2.69-6.43-2.05l-1.55-4.87c2.66-1.1,4.4-3.35,4.07-5.39l21.07-6.7
				c0.98,1.83,3.63,2.69,6.43,2.05l1.55,4.87L335.86,103.02z"/>
		</g>
		<g>
			
				<rect x="347.41" y="136.08" transform="matrix(0.6222 0.7828 -0.7828 0.6222 249.7415 -231.6793)" class="st22" width="35.01" height="13.69"/>
			<path class="st8" d="M371.47,144.61c0-0.87-0.19-1.78-0.51-2.68c-0.33-0.9-0.8-1.78-1.46-2.6c-0.66-0.83-1.36-1.42-2.21-2.01
				c-0.7-0.4-1.55-0.79-2.4-0.99s-1.69-0.2-2.49-0.04s-1.55,0.46-2.21,0.99c-0.61,0.49-1.08,1.15-1.46,1.93
				c-0.33,0.74-0.47,1.53-0.52,2.44c0,0.87,0.19,1.78,0.51,2.68c0.33,0.9,0.8,1.78,1.46,2.6c0.66,0.83,1.36,1.42,2.21,2.01
				c0.8,0.52,1.6,0.85,2.49,1.11c0.85,0.2,1.69,0.2,2.49,0.04c0.8-0.15,1.55-0.46,2.21-0.99c0.61-0.49,1.08-1.15,1.46-1.93
				C371.28,146.3,371.47,145.48,371.47,144.61z M361.08,146.12c-2.11-2.66-2.11-6.13,0.01-7.81c2.12-1.68,5.5-0.9,7.61,1.76
				c2.11,2.66,2.11,6.13-0.01,7.81C366.58,149.56,363.19,148.78,361.08,146.12z"/>
			<path class="st8" d="M366.16,144.4c-0.09-0.31-0.38-0.86-0.8-1.68c-0.38-0.76-0.66-1.31-0.61-1.54
				c-0.05-0.25,0.09-0.46,0.24-0.57c0.19-0.15,0.47-0.18,0.8-0.06c0.33,0.12,0.7,0.4,1.13,0.94c0.38,0.47,0.56,0.9,0.66,1.31
				c0.05,0.35-0.09,0.75-0.38,0.97l0.66,0.73c0.28-0.22,0.47-0.57,0.56-0.93s0.05-0.81-0.14-1.24c-0.09-0.31-0.23-0.58-0.47-0.88
				l0.61-0.49l-0.61-0.77l-0.61,0.49c-0.23-0.3-0.52-0.46-0.8-0.71c-0.38-0.28-0.75-0.37-1.13-0.36c-0.38,0.01-0.71,0.08-0.94,0.27
				c-0.24,0.19-0.38,0.4-0.42,0.72c-0.09,0.27-0.05,0.62,0.05,1.02c0.09,0.31,0.33,0.8,0.66,1.5c0.38,0.67,0.56,1.09,0.66,1.31
				c0.09,0.31,0.19,0.62,0.19,0.82c0,0.19-0.09,0.36-0.28,0.51c-0.14,0.11-0.33,0.17-0.56,0.16s-0.47-0.11-0.75-0.27
				c-0.28-0.16-0.52-0.46-0.75-0.75c-0.28-0.35-0.47-0.69-0.61-1.06s-0.14-0.66-0.14-0.95c0.05-0.23,0.19-0.54,0.42-0.72l-0.66-0.73
				c-0.33,0.26-0.52,0.6-0.61,1.06c-0.09,0.46-0.05,0.91,0.09,1.37c0.09,0.31,0.28,0.64,0.47,0.98l-0.61,0.49l0.61,0.77l0.61-0.49
				c0.28,0.35,0.66,0.63,0.99,0.85c0.42,0.24,0.85,0.39,1.22,0.38c0.38-0.01,0.71-0.08,0.99-0.3c0.28-0.22,0.47-0.47,0.52-0.8
				C366.35,145.31,366.3,144.86,366.16,144.4z"/>
			<path class="st8" d="M381.57,152.01l-21.6-27.18c-0.28-0.35-0.66-0.44-0.89-0.25l-10.96,8.71c-0.24,0.19-0.19,0.63,0.05,0.93
				l21.6,27.18c0.28,0.35,0.66,0.44,0.89,0.25l11.01-8.75C381.85,152.75,381.81,152.3,381.57,152.01z M373.2,157.7
				c-1.97-2.1-4.7-2.92-6.49-1.88l-13.81-17.37c1.36-1.57,1.23-4.35-0.37-6.74l4-3.18c1.97,2.1,4.7,2.92,6.49,1.88l13.76,17.31
				c-1.36,1.57-1.23,4.35,0.37,6.74l-4,3.18L373.2,157.7z"/>
		</g>
		<g>
			
				<rect x="289.04" y="160.27" transform="matrix(0.926 0.3774 -0.3774 0.926 87.7175 -106.4429)" class="st22" width="52.82" height="20.65"/>
			<path class="st8" d="M325.32,167.97c-0.64-1.14-1.56-2.2-2.66-3.14c-1.09-0.94-2.36-1.75-3.84-2.35s-2.84-0.87-4.39-1
				c-1.23-0.01-2.62,0.1-3.88,0.47c-1.26,0.37-2.37,0.99-3.31,1.78s-1.7,1.75-2.18,2.93c-0.44,1.09-0.57,2.31-0.49,3.62
				c0.12,1.22,0.51,2.36,1.12,3.59c0.64,1.14,1.56,2.2,2.66,3.14c1.09,0.94,2.36,1.75,3.84,2.35c1.48,0.6,2.84,0.87,4.39,1
				c1.44,0.1,2.73-0.06,4.09-0.39c1.26-0.37,2.37-0.99,3.31-1.78c0.94-0.79,1.7-1.75,2.18-2.93c0.44-1.09,0.57-2.31,0.49-3.62
				C326.32,170.34,325.96,169.11,325.32,167.97z M312.77,177.64c-4.74-1.93-7.31-6.5-5.77-10.28s6.57-5.25,11.31-3.32
				c4.74,1.93,7.31,6.5,5.77,10.28C322.54,178.1,317.52,179.57,312.77,177.64z"/>
			<path class="st8" d="M318.18,171.62c-0.35-0.34-1.13-0.85-2.29-1.62c-1.06-0.72-1.83-1.24-1.94-1.57
				c-0.25-0.3-0.22-0.68-0.11-0.93c0.14-0.34,0.48-0.59,1.01-0.67c0.52-0.08,1.23,0.01,2.17,0.4c0.84,0.34,1.41,0.77,1.83,1.24
				c0.32,0.42,0.43,1.06,0.22,1.56l1.4,0.47c0.21-0.5,0.2-1.09,0.05-1.64c-0.15-0.55-0.54-1.1-1.1-1.52
				c-0.35-0.34-0.74-0.6-1.27-0.81l0.44-1.09l-1.37-0.56l-0.44,1.09c-0.53-0.21-1.02-0.22-1.58-0.35c-0.7-0.09-1.26,0.07-1.75,0.36
				c-0.49,0.29-0.87,0.62-1.04,1.04c-0.17,0.42-0.2,0.8-0.02,1.26c0.07,0.42,0.39,0.85,0.82,1.31c0.35,0.34,1.02,0.81,1.97,1.49
				c0.99,0.6,1.55,1.02,1.83,1.24c0.35,0.34,0.71,0.68,0.85,0.93c0.14,0.25,0.15,0.55,0.01,0.88c-0.1,0.25-0.31,0.46-0.62,0.63
				s-0.7,0.2-1.19,0.2c-0.49,0-1.02-0.22-1.54-0.43c-0.63-0.26-1.13-0.56-1.58-0.94c-0.46-0.38-0.67-0.76-0.89-1.14
				c-0.11-0.34-0.15-0.84,0.02-1.26l-1.4-0.47c-0.24,0.59-0.23,1.18-0.02,1.85c0.22,0.68,0.61,1.23,1.14,1.74
				c0.35,0.34,0.85,0.64,1.34,0.94l-0.44,1.09l1.37,0.56l0.44-1.09c0.63,0.26,1.33,0.35,1.93,0.39c0.74,0.01,1.4-0.11,1.89-0.41
				c0.49-0.29,0.87-0.62,1.07-1.13c0.21-0.5,0.27-0.97,0.09-1.43C319.1,172.68,318.71,172.13,318.18,171.62z"/>
			<path class="st8" d="M344.07,170.23l-48.5-19.77c-0.63-0.26-1.19-0.09-1.36,0.33l-7.97,19.56c-0.17,0.42,0.22,0.97,0.75,1.19
				l48.5,19.77c0.63,0.26,1.19,0.09,1.36-0.33l8.01-19.64C344.99,170.99,344.6,170.44,344.07,170.23z M337.27,183.9
				c-4.14-1.3-8.34-0.36-9.92,2.32l-31-12.63c0.64-3.07-1.6-6.62-5.47-8.59l2.91-7.14c4.14,1.3,8.34,0.36,9.92-2.32l30.89,12.59
				c-0.64,3.07,1.6,6.62,5.47,8.59l-2.91,7.14L337.27,183.9z"/>
		</g>
		<g>
			
				<rect x="323.51" y="208.45" transform="matrix(0.918 -0.3965 0.3965 0.918 -57.1858 151.5345)" class="st22" width="28.77" height="11.25"/>
			<path class="st8" d="M340.65,209.24c-0.69-0.19-1.45-0.23-2.23-0.17s-1.58,0.25-2.38,0.6c-0.8,0.34-1.42,0.78-2.06,1.32
				c-0.47,0.47-0.96,1.06-1.3,1.69s-0.52,1.3-0.57,1.97c-0.05,0.67,0.03,1.33,0.31,1.96c0.25,0.59,0.68,1.1,1.22,1.57
				c0.52,0.42,1.11,0.7,1.82,0.93c0.69,0.19,1.45,0.23,2.23,0.17c0.78-0.07,1.58-0.25,2.38-0.6c0.8-0.34,1.42-0.78,2.06-1.32
				c0.59-0.52,1.02-1.09,1.41-1.74c0.34-0.63,0.52-1.3,0.57-1.97s-0.03-1.33-0.31-1.96c-0.25-0.59-0.68-1.1-1.22-1.57
				C341.95,209.75,341.33,209.42,340.65,209.24z M339.62,217.8c-2.56,1.11-5.32,0.36-6.2-1.68c-0.88-2.04,0.46-4.56,3.03-5.66
				c2.56-1.11,5.32-0.36,6.2,1.68C343.52,214.18,342.18,216.7,339.62,217.8z"/>
			<path class="st8" d="M339.34,213.4c-0.27,0.01-0.76,0.11-1.5,0.27c-0.69,0.13-1.18,0.24-1.35,0.15c-0.21-0.02-0.35-0.17-0.4-0.31
				c-0.08-0.18-0.04-0.41,0.13-0.65c0.17-0.23,0.47-0.47,0.98-0.69c0.46-0.2,0.84-0.25,1.18-0.24c0.29,0.04,0.57,0.24,0.69,0.51
				l0.72-0.37c-0.12-0.27-0.35-0.49-0.62-0.65c-0.27-0.15-0.63-0.21-1.01-0.15c-0.27,0.01-0.51,0.06-0.8,0.18l-0.25-0.59l-0.74,0.32
				l0.25,0.59c-0.28,0.12-0.47,0.31-0.74,0.48c-0.3,0.24-0.45,0.52-0.52,0.82c-0.07,0.3-0.09,0.58,0.01,0.8s0.23,0.38,0.48,0.49
				c0.19,0.13,0.48,0.17,0.82,0.18c0.27-0.01,0.7-0.09,1.33-0.2c0.61-0.16,0.99-0.21,1.18-0.24c0.27-0.01,0.53-0.02,0.69,0.03
				c0.15,0.04,0.27,0.15,0.35,0.33c0.06,0.14,0.06,0.3,0.01,0.48c-0.06,0.19-0.19,0.35-0.38,0.54s-0.47,0.31-0.76,0.44
				c-0.34,0.15-0.65,0.23-0.97,0.26s-0.55-0.03-0.78-0.09c-0.17-0.09-0.38-0.26-0.48-0.49l-0.72,0.37c0.14,0.32,0.37,0.54,0.71,0.71
				c0.35,0.17,0.71,0.23,1.11,0.22c0.27-0.01,0.57-0.09,0.88-0.16l0.25,0.59l0.74-0.32l-0.25-0.59c0.34-0.15,0.64-0.39,0.89-0.6
				c0.28-0.28,0.49-0.59,0.56-0.89s0.09-0.58-0.03-0.85c-0.12-0.27-0.27-0.47-0.52-0.58C340.1,213.45,339.74,213.39,339.34,213.4z"
				/>
			<path class="st8" d="M348.68,202.81l-26.19,11.31c-0.34,0.15-0.49,0.43-0.39,0.65l4.56,10.56c0.1,0.23,0.46,0.29,0.75,0.16
				l26.19-11.31c0.34-0.15,0.49-0.43,0.39-0.65l-4.58-10.61C349.33,202.74,348.96,202.68,348.68,202.81z M351.4,210.67
				c-2.09,1.12-3.32,3.1-2.88,4.74l-16.74,7.23c-0.95-1.42-3.19-1.9-5.43-1.15l-1.66-3.85c2.09-1.12,3.32-3.1,2.88-4.74l16.68-7.21
				c0.95,1.42,3.19,1.9,5.43,1.15l1.66,3.85L351.4,210.67z"/>
		</g>
		<g>
			
				<rect x="100.16" y="56.87" transform="matrix(0.9105 -0.4136 0.4136 0.9105 -15.587 52.94)" class="st22" width="28.64" height="11.2"/>
			<path class="st8" d="M117.12,57.6c-0.69-0.17-1.45-0.21-2.23-0.12c-0.78,0.08-1.57,0.28-2.35,0.64c-0.79,0.36-1.4,0.8-2.03,1.35
				c-0.46,0.48-0.94,1.07-1.26,1.71c-0.32,0.63-0.49,1.3-0.53,1.97s0.06,1.32,0.34,1.95c0.26,0.58,0.7,1.09,1.24,1.54
				c0.53,0.41,1.12,0.68,1.83,0.9c0.69,0.17,1.45,0.21,2.23,0.12c0.78-0.08,1.57-0.28,2.35-0.64c0.79-0.36,1.4-0.8,2.03-1.35
				c0.57-0.53,0.99-1.1,1.37-1.76c0.32-0.63,0.49-1.3,0.53-1.97c0.04-0.66-0.06-1.32-0.34-1.95c-0.26-0.58-0.7-1.09-1.24-1.54
				C118.43,58.09,117.81,57.78,117.12,57.6z M116.26,66.15c-2.53,1.15-5.29,0.46-6.2-1.56c-0.91-2.01,0.38-4.54,2.91-5.69
				c2.53-1.15,5.29-0.46,6.2,1.56C120.08,62.47,118.78,65,116.26,66.15z"/>
			<path class="st8" d="M115.9,61.78c-0.27,0.01-0.76,0.13-1.49,0.3c-0.68,0.15-1.17,0.26-1.34,0.18c-0.21-0.01-0.35-0.17-0.41-0.3
				c-0.08-0.18-0.05-0.41,0.11-0.65s0.46-0.48,0.97-0.71c0.45-0.2,0.83-0.27,1.17-0.26c0.29,0.03,0.58,0.22,0.7,0.49l0.71-0.38
				c-0.12-0.27-0.36-0.49-0.63-0.63c-0.27-0.15-0.63-0.2-1.01-0.13c-0.27,0.01-0.51,0.07-0.79,0.2l-0.26-0.58l-0.73,0.33l0.26,0.58
				c-0.28,0.13-0.47,0.32-0.73,0.49c-0.3,0.24-0.44,0.52-0.51,0.82c-0.07,0.3-0.08,0.58,0.02,0.8c0.1,0.22,0.24,0.38,0.49,0.48
				c0.19,0.13,0.48,0.16,0.82,0.17c0.27-0.01,0.7-0.1,1.32-0.22c0.6-0.17,0.98-0.23,1.17-0.26c0.27-0.01,0.53-0.03,0.68,0.01
				c0.15,0.04,0.27,0.15,0.35,0.33c0.06,0.13,0.07,0.29,0.01,0.48c-0.05,0.19-0.18,0.35-0.36,0.54c-0.18,0.19-0.47,0.32-0.75,0.45
				c-0.34,0.15-0.64,0.24-0.96,0.27c-0.32,0.04-0.55-0.02-0.78-0.08c-0.17-0.08-0.39-0.26-0.49-0.48l-0.71,0.38
				c0.14,0.31,0.38,0.53,0.72,0.7c0.35,0.17,0.71,0.22,1.11,0.2c0.27-0.01,0.57-0.1,0.87-0.18l0.26,0.58l0.73-0.33l-0.26-0.58
				c0.34-0.15,0.63-0.4,0.87-0.61c0.28-0.29,0.48-0.59,0.54-0.89c0.07-0.3,0.08-0.58-0.04-0.84c-0.12-0.27-0.28-0.47-0.53-0.57
				C116.66,61.81,116.29,61.76,115.9,61.78z"/>
			<path class="st8" d="M125,51.06L99.14,62.8c-0.34,0.15-0.48,0.43-0.38,0.66l4.74,10.43c0.1,0.22,0.46,0.28,0.75,0.15l25.86-11.75
				c0.34-0.15,0.48-0.43,0.38-0.66l-4.76-10.47C125.64,50.98,125.28,50.93,125,51.06z M127.85,58.83c-2.05,1.15-3.25,3.15-2.78,4.77
				l-16.53,7.51c-0.97-1.39-3.21-1.84-5.43-1.05l-1.73-3.8c2.05-1.15,3.25-3.15,2.78-4.77l16.47-7.48c0.97,1.39,3.21,1.84,5.43,1.05
				l1.73,3.8L127.85,58.83z"/>
		</g>
		<g>
			
				<rect x="165.09" y="175.71" transform="matrix(0.9998 -0.0196 0.0196 0.9998 -3.5321 3.588)" class="st22" width="32.55" height="12.72"/>
			<path class="st8" d="M186.31,178.18c-0.64-0.49-1.42-0.87-2.27-1.13c-0.85-0.26-1.76-0.41-2.74-0.39
				c-0.98,0.02-1.82,0.2-2.73,0.5c-0.7,0.29-1.46,0.7-2.08,1.21s-1.1,1.14-1.44,1.82c-0.34,0.68-0.53,1.41-0.52,2.19
				c0.01,0.73,0.24,1.45,0.6,2.17c0.36,0.66,0.87,1.21,1.51,1.76c0.64,0.49,1.42,0.87,2.27,1.13s1.76,0.41,2.74,0.39
				c0.98-0.02,1.82-0.2,2.73-0.5c0.84-0.3,1.53-0.7,2.22-1.22c0.62-0.52,1.1-1.14,1.44-1.82c0.34-0.68,0.53-1.41,0.52-2.19
				c-0.01-0.73-0.24-1.45-0.6-2.17C187.45,179.28,186.95,178.67,186.31,178.18z M181.56,186.71c-3.16,0.06-5.72-1.9-5.77-4.41
				c-0.05-2.51,2.44-4.57,5.59-4.64c3.16-0.06,5.72,1.9,5.77,4.41C187.21,184.59,184.72,186.65,181.56,186.71z"/>
			<path class="st8" d="M183.16,181.99c-0.28-0.11-0.85-0.21-1.69-0.36c-0.77-0.15-1.34-0.25-1.48-0.42
				c-0.21-0.11-0.29-0.33-0.29-0.5c0-0.22,0.13-0.45,0.41-0.62c0.28-0.17,0.7-0.29,1.33-0.31c0.56-0.01,0.98,0.09,1.34,0.25
				c0.28,0.16,0.5,0.49,0.51,0.83l0.91-0.07c-0.01-0.34-0.15-0.67-0.37-0.94s-0.57-0.49-0.99-0.6c-0.28-0.11-0.56-0.16-0.92-0.15
				l-0.01-0.73l-0.91,0.02l0.01,0.73c-0.35,0.01-0.63,0.12-0.98,0.19c-0.42,0.12-0.69,0.35-0.9,0.63c-0.2,0.28-0.34,0.57-0.33,0.84
				s0.08,0.5,0.29,0.72c0.14,0.22,0.43,0.38,0.78,0.54c0.28,0.11,0.78,0.21,1.48,0.36c0.7,0.1,1.13,0.2,1.34,0.25
				c0.28,0.11,0.57,0.21,0.71,0.32c0.14,0.11,0.22,0.28,0.22,0.5c0,0.17-0.06,0.34-0.2,0.51c-0.14,0.17-0.35,0.29-0.62,0.4
				s-0.63,0.12-0.98,0.13c-0.42,0.01-0.77-0.04-1.13-0.15c-0.35-0.1-0.57-0.27-0.78-0.43c-0.14-0.16-0.29-0.44-0.29-0.72l-0.91,0.07
				c0.01,0.39,0.15,0.72,0.44,1.05c0.29,0.33,0.64,0.55,1.07,0.71c0.28,0.11,0.63,0.16,0.99,0.2l0.01,0.73l0.91-0.02l-0.01-0.73
				c0.42-0.01,0.84-0.13,1.19-0.25c0.42-0.18,0.76-0.41,0.97-0.69c0.2-0.28,0.34-0.57,0.33-0.9c-0.01-0.34-0.08-0.61-0.3-0.83
				C183.94,182.36,183.58,182.15,183.16,181.99z"/>
			<path class="st8" d="M197.47,174.89l-32.27,0.63c-0.42,0.01-0.7,0.24-0.69,0.52l0.25,13.01c0.01,0.28,0.36,0.5,0.71,0.49
				l32.27-0.63c0.42-0.01,0.7-0.24,0.69-0.52l-0.26-13.07C198.18,175.1,197.82,174.88,197.47,174.89z M196.95,184.29
				c-2.66,0.28-4.81,1.83-5.05,3.73l-20.62,0.4c-0.39-1.89-2.52-3.36-5.19-3.53l-0.09-4.75c2.66-0.28,4.81-1.83,5.05-3.73l20.55-0.4
				c0.39,1.89,2.52,3.36,5.19,3.53l0.09,4.75L196.95,184.29z"/>
		</g>
		<g>
			
				<rect x="123.34" y="260.33" transform="matrix(-9.049325e-03 1 -1 -9.049325e-03 398.1995 133.551)" class="st22" width="19.17" height="7.49"/>
			<path class="st8" d="M135.13,267.06c0.3-0.37,0.53-0.82,0.7-1.32s0.27-1.03,0.28-1.61c0.01-0.58-0.09-1.08-0.25-1.61
				c-0.16-0.41-0.39-0.87-0.68-1.25s-0.65-0.67-1.04-0.88c-0.39-0.21-0.82-0.34-1.28-0.34c-0.43,0-0.86,0.12-1.29,0.32
				c-0.4,0.2-0.73,0.49-1.06,0.86c-0.3,0.37-0.53,0.82-0.7,1.32c-0.17,0.49-0.27,1.03-0.28,1.61c-0.01,0.58,0.09,1.08,0.25,1.61
				c0.16,0.5,0.39,0.91,0.68,1.33c0.29,0.37,0.65,0.67,1.04,0.88c0.39,0.21,0.82,0.34,1.28,0.34c0.43,0,0.86-0.12,1.29-0.32
				C134.47,267.71,134.83,267.43,135.13,267.06z M130.19,264.12c0.02-1.86,1.21-3.34,2.69-3.32c1.48,0.01,2.65,1.51,2.63,3.37
				s-1.21,3.34-2.69,3.32C131.35,267.48,130.17,265.98,130.19,264.12z"/>
			<path class="st8" d="M132.95,265.14c0.07-0.16,0.14-0.49,0.24-0.99c0.1-0.45,0.17-0.78,0.27-0.87c0.07-0.12,0.2-0.16,0.3-0.16
				c0.13,0,0.26,0.09,0.36,0.25s0.16,0.41,0.16,0.79c0,0.33-0.07,0.58-0.17,0.78c-0.1,0.16-0.3,0.29-0.5,0.28l0.03,0.54
				c0.2,0,0.4-0.08,0.56-0.2s0.3-0.33,0.37-0.58c0.07-0.16,0.1-0.33,0.1-0.54l0.43,0l0-0.54l-0.43,0c0-0.21-0.06-0.37-0.09-0.58
				c-0.06-0.25-0.19-0.41-0.36-0.54c-0.16-0.13-0.33-0.21-0.49-0.21c-0.16,0-0.3,0.04-0.43,0.16c-0.13,0.08-0.23,0.25-0.33,0.45
				c-0.07,0.16-0.14,0.45-0.24,0.87c-0.07,0.41-0.14,0.66-0.17,0.78c-0.07,0.16-0.13,0.33-0.2,0.41c-0.07,0.08-0.17,0.12-0.3,0.12
				c-0.1,0-0.2-0.04-0.29-0.13c-0.1-0.08-0.16-0.21-0.23-0.37s-0.06-0.37-0.06-0.58c0-0.25,0.04-0.45,0.1-0.66
				c0.07-0.21,0.17-0.33,0.27-0.45c0.1-0.08,0.26-0.16,0.43-0.16l-0.03-0.54c-0.23,0-0.43,0.08-0.63,0.24
				c-0.2,0.16-0.33,0.37-0.43,0.62c-0.07,0.16-0.1,0.37-0.14,0.58l-0.43,0l0,0.54l0.43,0c0,0.25,0.06,0.5,0.13,0.7
				c0.1,0.25,0.23,0.46,0.39,0.58c0.16,0.13,0.33,0.21,0.52,0.21c0.2,0,0.36-0.04,0.49-0.16
				C132.71,265.59,132.84,265.38,132.95,265.14z"/>
			<path class="st8" d="M136.88,273.69l0.17-19.01c0-0.25-0.13-0.41-0.29-0.42l-7.66-0.07c-0.16,0-0.3,0.2-0.3,0.41l-0.17,19.01
				c0,0.25,0.13,0.41,0.29,0.42l7.7,0.07C136.75,274.1,136.88,273.89,136.88,273.69z M131.36,273.22c-0.12-1.57-0.99-2.86-2.11-3.04
				l0.11-12.15c1.12-0.2,2.02-1.43,2.17-3l2.8,0.03c0.12,1.57,0.99,2.86,2.11,3.04l-0.11,12.11c-1.12,0.2-2.02,1.43-2.17,3
				l-2.8-0.03L131.36,273.22z"/>
		</g>
		<g>
			
				<rect x="92.86" y="225.66" transform="matrix(0.882 0.4713 -0.4713 0.882 120.3864 -21.4555)" class="st22" width="20.34" height="7.95"/>
			<path class="st8" d="M106.92,229.02c-0.2-0.46-0.51-0.91-0.89-1.31c-0.38-0.4-0.84-0.76-1.38-1.05
				c-0.54-0.29-1.05-0.44-1.64-0.56c-0.47-0.05-1.01-0.06-1.51,0.03c-0.5,0.09-0.95,0.29-1.34,0.55c-0.39,0.27-0.72,0.6-0.95,1.04
				c-0.21,0.4-0.31,0.86-0.33,1.37c0,0.47,0.1,0.93,0.29,1.42c0.2,0.46,0.51,0.91,0.89,1.31s0.84,0.76,1.38,1.05
				c0.54,0.29,1.05,0.44,1.64,0.56c0.55,0.09,1.05,0.09,1.58,0.01c0.5-0.09,0.95-0.29,1.34-0.55c0.39-0.27,0.72-0.6,0.95-1.04
				c0.21-0.4,0.31-0.86,0.33-1.37C107.21,229.97,107.12,229.49,106.92,229.02z M101.72,232.23c-1.74-0.93-2.54-2.78-1.8-4.17
				s2.73-1.75,4.47-0.82c1.74,0.93,2.54,2.78,1.8,4.17C105.45,232.79,103.46,233.16,101.72,232.23z"/>
			<path class="st8" d="M104.03,230.14c-0.12-0.14-0.4-0.37-0.81-0.71c-0.38-0.32-0.65-0.55-0.68-0.68
				c-0.08-0.12-0.06-0.27-0.01-0.36c0.07-0.12,0.21-0.21,0.41-0.21c0.2-0.01,0.47,0.05,0.82,0.24c0.31,0.17,0.51,0.35,0.65,0.55
				c0.11,0.18,0.12,0.42,0.02,0.61l0.52,0.24c0.1-0.18,0.12-0.41,0.09-0.63s-0.16-0.44-0.36-0.63c-0.12-0.14-0.26-0.26-0.45-0.36
				l0.21-0.4l-0.5-0.27l-0.21,0.4c-0.19-0.1-0.38-0.12-0.59-0.2c-0.26-0.06-0.49-0.02-0.68,0.07s-0.36,0.2-0.44,0.36
				c-0.08,0.15-0.11,0.3-0.06,0.48c0.01,0.16,0.12,0.34,0.26,0.54c0.12,0.14,0.36,0.35,0.7,0.65c0.35,0.27,0.55,0.45,0.65,0.55
				c0.12,0.14,0.24,0.29,0.29,0.39c0.04,0.1,0.03,0.22-0.03,0.34c-0.05,0.09-0.14,0.16-0.26,0.22c-0.13,0.05-0.28,0.05-0.46,0.03
				c-0.19-0.02-0.38-0.12-0.57-0.23c-0.23-0.12-0.41-0.26-0.57-0.42s-0.23-0.32-0.29-0.47c-0.03-0.13-0.02-0.33,0.06-0.48
				l-0.52-0.24c-0.12,0.22-0.14,0.44-0.08,0.71s0.18,0.49,0.37,0.71c0.12,0.14,0.3,0.28,0.48,0.41l-0.21,0.4l0.5,0.27l0.21-0.4
				c0.23,0.12,0.5,0.19,0.72,0.23c0.28,0.03,0.54,0.01,0.74-0.08c0.2-0.09,0.36-0.2,0.46-0.39c0.1-0.18,0.14-0.36,0.09-0.54
				C104.34,230.58,104.22,230.35,104.03,230.14z"/>
			<path class="st8" d="M114.01,230.64l-17.79-9.51c-0.23-0.12-0.45-0.08-0.53,0.07l-3.83,7.18c-0.08,0.15,0.05,0.38,0.24,0.48
				l17.79,9.51c0.23,0.12,0.45,0.08,0.53-0.07l3.85-7.21C114.33,230.97,114.2,230.74,114.01,230.64z M110.86,235.6
				c-1.54-0.66-3.18-0.47-3.89,0.49l-11.37-6.08c0.37-1.15-0.35-2.6-1.75-3.51l1.4-2.62c1.54,0.66,3.18,0.47,3.89-0.49l11.33,6.06
				c-0.37,1.15,0.35,2.6,1.75,3.51l-1.4,2.62L110.86,235.6z"/>
		</g>
		<g>
			
				<rect x="82.96" y="197.38" transform="matrix(0.7923 0.6101 -0.6101 0.7923 142.1983 -15.0009)" class="st22" width="20.34" height="7.95"/>
			<path class="st8" d="M97.06,201.39c-0.12-0.49-0.35-0.98-0.66-1.44s-0.7-0.89-1.18-1.26s-0.97-0.61-1.53-0.82
				c-0.45-0.13-0.99-0.23-1.49-0.22c-0.5,0.01-0.98,0.13-1.41,0.32c-0.43,0.2-0.81,0.48-1.11,0.86c-0.28,0.36-0.45,0.8-0.55,1.29
				c-0.08,0.47-0.05,0.93,0.05,1.45c0.12,0.49,0.35,0.98,0.66,1.44c0.31,0.46,0.7,0.89,1.18,1.26s0.97,0.61,1.53,0.82
				c0.52,0.18,1.02,0.26,1.56,0.28c0.5-0.01,0.98-0.13,1.41-0.32c0.43-0.2,0.81-0.48,1.11-0.86c0.28-0.36,0.45-0.8,0.55-1.29
				C97.19,202.37,97.19,201.88,97.06,201.39z M91.42,203.7c-1.56-1.2-2.05-3.16-1.09-4.41s2.98-1.28,4.54-0.07
				c1.56,1.2,2.05,3.16,1.09,4.41C95,204.87,92.98,204.9,91.42,203.7z"/>
			<path class="st8" d="M94.04,202.02c-0.1-0.16-0.33-0.43-0.68-0.84c-0.32-0.38-0.55-0.65-0.56-0.78
				c-0.06-0.14-0.01-0.27,0.05-0.36c0.09-0.11,0.24-0.17,0.44-0.14s0.45,0.13,0.77,0.37c0.28,0.21,0.44,0.43,0.55,0.65
				c0.08,0.19,0.05,0.44-0.08,0.6l0.47,0.32c0.13-0.17,0.19-0.39,0.19-0.6c0-0.22-0.09-0.46-0.25-0.68c-0.1-0.16-0.21-0.3-0.39-0.43
				l0.28-0.36l-0.45-0.35l-0.28,0.36c-0.17-0.13-0.36-0.19-0.55-0.29c-0.25-0.11-0.48-0.1-0.69-0.04c-0.21,0.06-0.39,0.14-0.49,0.28
				c-0.11,0.14-0.16,0.28-0.14,0.47c-0.02,0.16,0.06,0.35,0.17,0.57c0.1,0.16,0.3,0.4,0.58,0.76c0.3,0.32,0.47,0.54,0.55,0.65
				c0.1,0.16,0.19,0.32,0.22,0.43c0.03,0.11,0,0.22-0.09,0.33c-0.06,0.08-0.16,0.14-0.3,0.17s-0.28,0-0.46-0.05
				s-0.36-0.19-0.53-0.32c-0.21-0.16-0.36-0.32-0.49-0.51c-0.13-0.19-0.17-0.35-0.21-0.52c-0.01-0.14,0.03-0.33,0.14-0.47
				l-0.47-0.32c-0.15,0.19-0.21,0.41-0.2,0.69c0.01,0.27,0.1,0.52,0.24,0.76c0.1,0.16,0.25,0.32,0.4,0.49l-0.28,0.36l0.45,0.35
				l0.28-0.36c0.21,0.16,0.46,0.27,0.68,0.34c0.27,0.08,0.53,0.1,0.74,0.04c0.21-0.06,0.39-0.14,0.51-0.31
				c0.13-0.17,0.2-0.33,0.18-0.52C94.27,202.5,94.18,202.26,94.04,202.02z"/>
			<path class="st8" d="M103.8,204.15l-15.98-12.31c-0.21-0.16-0.43-0.16-0.54-0.02l-4.96,6.45c-0.11,0.14-0.02,0.38,0.16,0.52
				l15.98,12.31c0.21,0.16,0.43,0.16,0.54,0.02l4.98-6.47C104.06,204.53,103.97,204.29,103.8,204.15z M99.87,208.53
				c-1.41-0.91-3.06-0.99-3.92-0.16l-10.21-7.87c0.55-1.07,0.08-2.62-1.15-3.75l1.81-2.35c1.41,0.91,3.06,0.99,3.92,0.16l10.18,7.84
				c-0.55,1.07-0.08,2.62,1.15,3.75l-1.81,2.35L99.87,208.53z"/>
		</g>
		<g>
			
				<rect x="132.39" y="138.76" transform="matrix(0.8883 0.4593 -0.4593 0.8883 81.4895 -49.5319)" class="st22" width="20.34" height="7.95"/>
			<path class="st8" d="M146.43,142.07c-0.21-0.46-0.52-0.9-0.91-1.3c-0.39-0.4-0.85-0.75-1.39-1.03c-0.55-0.28-1.06-0.43-1.65-0.54
				c-0.47-0.05-1.01-0.05-1.51,0.05c-0.49,0.1-0.94,0.3-1.33,0.57c-0.39,0.27-0.71,0.61-0.94,1.05c-0.21,0.4-0.3,0.87-0.31,1.37
				c0,0.47,0.11,0.92,0.3,1.42c0.21,0.46,0.52,0.9,0.91,1.3s0.85,0.75,1.39,1.03s1.06,0.43,1.65,0.54c0.55,0.09,1.05,0.07,1.58-0.01
				c0.49-0.1,0.94-0.3,1.33-0.57c0.39-0.27,0.71-0.61,0.94-1.05c0.21-0.4,0.3-0.87,0.31-1.37
				C146.74,143.02,146.64,142.53,146.43,142.07z M141.29,145.35c-1.75-0.91-2.58-2.75-1.86-4.14c0.72-1.4,2.7-1.79,4.45-0.88
				c1.75,0.91,2.58,2.75,1.86,4.14C145.02,145.86,143.04,146.25,141.29,145.35z"/>
			<path class="st8" d="M143.57,143.22c-0.12-0.14-0.4-0.37-0.82-0.7c-0.38-0.31-0.66-0.54-0.69-0.67
				c-0.08-0.12-0.06-0.27-0.01-0.36c0.06-0.12,0.21-0.21,0.41-0.22c0.2-0.01,0.47,0.05,0.82,0.23c0.31,0.16,0.51,0.34,0.66,0.54
				c0.11,0.17,0.13,0.42,0.03,0.61l0.52,0.23c0.1-0.19,0.11-0.41,0.08-0.63s-0.17-0.44-0.37-0.62c-0.12-0.14-0.26-0.25-0.46-0.35
				l0.21-0.4l-0.51-0.26l-0.21,0.4c-0.19-0.1-0.38-0.12-0.59-0.19c-0.27-0.06-0.49-0.02-0.68,0.08c-0.2,0.09-0.36,0.21-0.44,0.36
				s-0.11,0.3-0.05,0.48c0.01,0.16,0.12,0.34,0.27,0.53c0.12,0.14,0.36,0.35,0.71,0.64c0.36,0.26,0.56,0.45,0.66,0.54
				c0.12,0.14,0.25,0.29,0.29,0.39c0.05,0.1,0.04,0.22-0.03,0.34c-0.05,0.09-0.14,0.17-0.26,0.22c-0.13,0.05-0.27,0.05-0.46,0.04
				c-0.19-0.02-0.38-0.12-0.58-0.22c-0.23-0.12-0.41-0.25-0.58-0.42c-0.16-0.16-0.23-0.32-0.3-0.47c-0.03-0.13-0.03-0.33,0.05-0.48
				l-0.52-0.23c-0.11,0.22-0.13,0.44-0.07,0.71c0.06,0.27,0.19,0.49,0.38,0.71c0.12,0.14,0.3,0.27,0.48,0.41l-0.21,0.4l0.51,0.26
				l0.21-0.4c0.23,0.12,0.5,0.18,0.73,0.22c0.28,0.03,0.54,0,0.74-0.09c0.2-0.09,0.36-0.21,0.45-0.4c0.1-0.19,0.14-0.36,0.08-0.55
				C143.88,143.66,143.75,143.44,143.57,143.22z"/>
			<path class="st8" d="M153.55,143.59l-17.92-9.27c-0.23-0.12-0.45-0.08-0.53,0.08l-3.74,7.23c-0.08,0.16,0.05,0.38,0.25,0.48
				l17.92,9.27c0.23,0.12,0.45,0.08,0.53-0.08l3.75-7.26C153.87,143.92,153.74,143.69,153.55,143.59z M150.47,148.6
				c-1.54-0.64-3.18-0.43-3.89,0.55l-11.45-5.92c0.35-1.16-0.39-2.6-1.8-3.49l1.36-2.64c1.54,0.64,3.18,0.43,3.89-0.55l11.41,5.9
				c-0.35,1.16,0.39,2.6,1.8,3.49l-1.36,2.64L150.47,148.6z"/>
		</g>
		<g>
			
				<rect x="203.62" y="154.12" transform="matrix(0.8697 0.4937 -0.4937 0.8697 106.6998 -86.0116)" class="st22" width="25.23" height="9.86"/>
			<path class="st8" d="M221.06,158.41c-0.23-0.58-0.6-1.14-1.06-1.65c-0.46-0.51-1.01-0.97-1.67-1.35
				c-0.66-0.38-1.29-0.58-2.02-0.75c-0.58-0.08-1.25-0.11-1.87-0.01s-1.18,0.32-1.68,0.64s-0.91,0.73-1.21,1.25
				c-0.28,0.49-0.41,1.06-0.46,1.68c-0.02,0.59,0.1,1.15,0.31,1.77c0.23,0.58,0.6,1.14,1.06,1.65s1.01,0.97,1.67,1.35
				c0.66,0.38,1.29,0.58,2.02,0.75c0.67,0.13,1.3,0.14,1.96,0.07c0.62-0.1,1.18-0.32,1.68-0.64s0.91-0.73,1.21-1.25
				c0.28-0.49,0.41-1.06,0.46-1.68C221.39,159.6,221.3,158.99,221.06,158.41z M214.53,162.22c-2.13-1.21-3.06-3.53-2.1-5.22
				c0.96-1.69,3.43-2.08,5.56-0.88c2.13,1.21,3.06,3.53,2.1,5.22C219.13,163.04,216.65,163.43,214.53,162.22z"/>
			<path class="st8" d="M217.46,159.7c-0.15-0.18-0.48-0.47-0.99-0.91c-0.46-0.41-0.79-0.7-0.82-0.86c-0.1-0.16-0.06-0.33,0-0.45
				c0.09-0.15,0.27-0.25,0.52-0.25s0.58,0.08,1.01,0.32c0.38,0.21,0.62,0.45,0.79,0.7c0.13,0.22,0.14,0.53,0.01,0.75l0.64,0.31
				c0.13-0.23,0.16-0.51,0.13-0.77s-0.19-0.55-0.43-0.79c-0.15-0.18-0.31-0.33-0.55-0.46l0.28-0.49l-0.61-0.35l-0.28,0.49
				c-0.24-0.13-0.47-0.17-0.73-0.26c-0.33-0.09-0.6-0.04-0.85,0.07c-0.25,0.11-0.45,0.24-0.56,0.43c-0.11,0.19-0.15,0.37-0.09,0.6
				c0.01,0.2,0.13,0.42,0.31,0.67c0.15,0.18,0.43,0.45,0.84,0.83c0.43,0.34,0.67,0.58,0.79,0.7c0.15,0.18,0.29,0.37,0.34,0.49
				c0.05,0.13,0.04,0.27-0.05,0.42c-0.06,0.11-0.18,0.2-0.33,0.26c-0.16,0.06-0.34,0.05-0.58,0.02c-0.23-0.03-0.47-0.17-0.7-0.3
				c-0.28-0.16-0.5-0.33-0.69-0.54c-0.19-0.21-0.27-0.4-0.35-0.6c-0.03-0.17-0.02-0.41,0.09-0.6l-0.64-0.31
				c-0.15,0.26-0.18,0.54-0.12,0.88c0.06,0.33,0.21,0.62,0.43,0.89c0.15,0.18,0.36,0.35,0.58,0.53l-0.28,0.49l0.61,0.35l0.28-0.49
				c0.28,0.16,0.61,0.25,0.89,0.31c0.35,0.05,0.67,0.03,0.92-0.08c0.25-0.11,0.45-0.24,0.58-0.47c0.13-0.23,0.19-0.44,0.13-0.67
				C217.83,160.26,217.68,159.98,217.46,159.7z"/>
			<path class="st8" d="M229.81,160.64l-21.75-12.35c-0.28-0.16-0.56-0.12-0.67,0.07l-4.98,8.77c-0.11,0.19,0.04,0.47,0.28,0.61
				l21.75,12.35c0.28,0.16,0.56,0.12,0.67-0.07l5-8.81C230.19,161.06,230.04,160.77,229.81,160.64z M225.74,166.7
				c-1.88-0.87-3.93-0.69-4.84,0.49l-13.9-7.89c0.49-1.41-0.35-3.24-2.06-4.41l1.82-3.2c1.88,0.87,3.93,0.69,4.84-0.49l13.86,7.87
				c-0.49,1.41,0.35,3.24,2.06,4.41l-1.82,3.2L225.74,166.7z"/>
		</g>
		<g>
			
				<rect x="11.98" y="146.97" transform="matrix(0.8913 0.4534 -0.4534 0.8913 70.8517 6.3626)" class="st22" width="20.34" height="7.95"/>
			<path class="st8" d="M26.03,150.26c-0.21-0.46-0.53-0.9-0.92-1.29c-0.39-0.39-0.85-0.75-1.4-1.02c-0.55-0.28-1.06-0.42-1.65-0.53
				c-0.47-0.04-1.01-0.04-1.51,0.06c-0.49,0.1-0.94,0.3-1.33,0.58c-0.39,0.27-0.71,0.62-0.93,1.05c-0.21,0.4-0.29,0.87-0.3,1.37
				c0.01,0.47,0.12,0.92,0.31,1.41c0.21,0.46,0.53,0.9,0.92,1.29c0.39,0.39,0.85,0.75,1.4,1.02c0.55,0.28,1.06,0.42,1.65,0.53
				c0.55,0.08,1.05,0.06,1.58-0.02c0.49-0.1,0.94-0.3,1.33-0.58c0.39-0.27,0.71-0.62,0.93-1.05c0.21-0.4,0.29-0.87,0.3-1.37
				C26.34,151.2,26.24,150.72,26.03,150.26z M20.9,153.57c-1.76-0.89-2.6-2.73-1.88-4.13c0.71-1.4,2.69-1.8,4.45-0.91
				c1.76,0.89,2.6,2.73,1.88,4.13C24.64,154.06,22.66,154.46,20.9,153.57z"/>
			<path class="st8" d="M23.17,151.43c-0.12-0.14-0.41-0.36-0.83-0.7c-0.38-0.31-0.66-0.53-0.69-0.67
				c-0.09-0.12-0.06-0.27-0.01-0.36c0.06-0.12,0.2-0.21,0.41-0.22c0.2-0.01,0.47,0.04,0.82,0.22c0.31,0.16,0.52,0.34,0.66,0.53
				c0.11,0.17,0.13,0.42,0.04,0.61l0.52,0.23c0.09-0.19,0.11-0.41,0.07-0.63s-0.17-0.44-0.37-0.62c-0.12-0.14-0.27-0.25-0.46-0.35
				l0.21-0.4l-0.51-0.26l-0.21,0.4c-0.2-0.1-0.38-0.12-0.59-0.19c-0.27-0.06-0.49-0.01-0.68,0.08c-0.2,0.1-0.35,0.21-0.43,0.37
				c-0.08,0.16-0.1,0.3-0.05,0.48c0.01,0.16,0.12,0.34,0.27,0.53c0.12,0.14,0.37,0.34,0.71,0.64c0.36,0.26,0.56,0.44,0.66,0.53
				c0.12,0.14,0.25,0.28,0.3,0.39c0.05,0.1,0.04,0.22-0.03,0.34c-0.05,0.09-0.13,0.17-0.26,0.22s-0.27,0.06-0.46,0.04
				c-0.19-0.02-0.38-0.12-0.58-0.22c-0.23-0.12-0.41-0.25-0.58-0.41c-0.16-0.16-0.23-0.31-0.3-0.47c-0.03-0.13-0.03-0.33,0.05-0.48
				l-0.52-0.23c-0.11,0.22-0.13,0.44-0.07,0.71c0.06,0.27,0.19,0.49,0.38,0.7c0.12,0.14,0.3,0.27,0.48,0.4l-0.21,0.4l0.51,0.26
				l0.21-0.4c0.23,0.12,0.5,0.18,0.73,0.21c0.28,0.03,0.54,0,0.74-0.1c0.2-0.1,0.35-0.21,0.45-0.4s0.14-0.36,0.08-0.55
				C23.49,151.87,23.36,151.64,23.17,151.43z"/>
			<path class="st8" d="M33.15,151.73l-17.98-9.15c-0.23-0.12-0.45-0.07-0.53,0.08l-3.69,7.25c-0.08,0.16,0.05,0.38,0.25,0.48
				l17.98,9.15c0.23,0.12,0.45,0.07,0.53-0.08l3.7-7.28C33.48,152.05,33.35,151.83,33.15,151.73z M30.1,156.76
				c-1.55-0.63-3.19-0.41-3.88,0.57l-11.49-5.85c0.34-1.16-0.4-2.59-1.82-3.47l1.35-2.65c1.55,0.63,3.19,0.41,3.88-0.57l11.45,5.83
				c-0.34,1.16,0.4,2.59,1.82,3.47l-1.35,2.65L30.1,156.76z"/>
		</g>
		<g>
			
				<rect x="80.67" y="34.93" transform="matrix(0.8913 0.4534 -0.4534 0.8913 27.5144 -36.9586)" class="st22" width="20.34" height="7.95"/>
			<path class="st8" d="M94.71,38.21c-0.21-0.46-0.53-0.9-0.92-1.29s-0.85-0.75-1.4-1.02c-0.55-0.28-1.06-0.42-1.65-0.53
				c-0.47-0.04-1.01-0.04-1.51,0.06c-0.49,0.1-0.94,0.3-1.33,0.58s-0.71,0.62-0.93,1.05c-0.21,0.4-0.29,0.87-0.3,1.37
				c0.01,0.47,0.12,0.92,0.31,1.41c0.21,0.46,0.53,0.9,0.92,1.29s0.85,0.75,1.4,1.02c0.55,0.28,1.06,0.42,1.65,0.53
				c0.55,0.08,1.05,0.06,1.58-0.02c0.49-0.1,0.94-0.3,1.33-0.58c0.39-0.27,0.71-0.62,0.93-1.05c0.21-0.4,0.29-0.87,0.3-1.37
				C95.02,39.16,94.92,38.67,94.71,38.21z M89.58,41.52c-1.76-0.89-2.6-2.73-1.88-4.13c0.71-1.4,2.69-1.8,4.45-0.91
				c1.76,0.89,2.6,2.73,1.88,4.13S91.34,42.42,89.58,41.52z"/>
			<path class="st8" d="M91.85,39.39c-0.12-0.14-0.41-0.36-0.83-0.7c-0.38-0.31-0.66-0.53-0.69-0.67c-0.09-0.12-0.06-0.27-0.01-0.36
				c0.06-0.12,0.2-0.21,0.41-0.22c0.2-0.01,0.47,0.04,0.82,0.22c0.31,0.16,0.52,0.34,0.66,0.53c0.11,0.17,0.13,0.42,0.04,0.61
				l0.52,0.23c0.09-0.19,0.11-0.41,0.07-0.63c-0.04-0.22-0.17-0.44-0.37-0.62c-0.12-0.14-0.27-0.25-0.46-0.35l0.21-0.4l-0.51-0.26
				l-0.21,0.4c-0.2-0.1-0.38-0.12-0.59-0.19c-0.27-0.06-0.49-0.01-0.68,0.08c-0.2,0.1-0.35,0.21-0.43,0.37s-0.1,0.3-0.05,0.48
				c0.01,0.16,0.12,0.34,0.27,0.53c0.12,0.14,0.37,0.34,0.71,0.64c0.36,0.26,0.56,0.44,0.66,0.53c0.12,0.14,0.25,0.28,0.3,0.39
				s0.04,0.22-0.03,0.34c-0.05,0.09-0.13,0.17-0.26,0.22c-0.13,0.05-0.27,0.06-0.46,0.04c-0.19-0.02-0.38-0.12-0.58-0.22
				c-0.23-0.12-0.41-0.25-0.58-0.41c-0.16-0.16-0.23-0.31-0.3-0.47c-0.03-0.13-0.03-0.33,0.05-0.48L89,38.8
				c-0.11,0.22-0.13,0.44-0.07,0.71s0.19,0.49,0.38,0.7c0.12,0.14,0.3,0.27,0.48,0.4l-0.21,0.4l0.51,0.26l0.21-0.4
				c0.23,0.12,0.5,0.18,0.73,0.21c0.28,0.03,0.54,0,0.74-0.1c0.2-0.1,0.35-0.21,0.45-0.4s0.14-0.36,0.08-0.55
				C92.17,39.82,92.04,39.6,91.85,39.39z"/>
			<path class="st8" d="M101.83,39.68l-17.98-9.15c-0.23-0.12-0.45-0.07-0.53,0.08l-3.69,7.25c-0.08,0.16,0.05,0.38,0.25,0.48
				l17.98,9.15c0.23,0.12,0.45,0.07,0.53-0.08l3.7-7.28C102.16,40.01,102.03,39.78,101.83,39.68z M98.78,44.71
				c-1.55-0.63-3.19-0.41-3.88,0.57l-11.49-5.85c0.34-1.16-0.4-2.59-1.82-3.47l1.35-2.65c1.55,0.63,3.19,0.41,3.88-0.57l11.45,5.83
				c-0.34,1.16,0.4,2.59,1.82,3.47l-1.35,2.65L98.78,44.71z"/>
		</g>
		<g>
			
				<rect x="28.01" y="50.74" transform="matrix(0.1772 -0.9842 0.9842 0.1772 -21.7266 84.7176)" class="st22" width="23.59" height="9.22"/>
			<path class="st8" d="M37.74,51.28c-0.44,0.39-0.82,0.89-1.13,1.45c-0.31,0.56-0.54,1.19-0.67,1.89c-0.13,0.7-0.11,1.32-0.03,2.01
				c0.11,0.54,0.29,1.14,0.57,1.65s0.65,0.94,1.09,1.28c0.43,0.34,0.92,0.58,1.48,0.68c0.52,0.09,1.06,0.04,1.63-0.12
				c0.52-0.16,0.98-0.44,1.46-0.82c0.44-0.39,0.82-0.89,1.13-1.45s0.54-1.19,0.67-1.89c0.13-0.7,0.11-1.32,0.03-2.01
				c-0.09-0.64-0.28-1.19-0.55-1.75c-0.28-0.52-0.65-0.94-1.09-1.28c-0.43-0.34-0.92-0.58-1.48-0.68c-0.52-0.09-1.06-0.04-1.63,0.12
				C38.69,50.63,38.18,50.9,37.74,51.28z M43.13,55.87c-0.41,2.25-2.16,3.8-3.96,3.47s-2.9-2.38-2.5-4.64
				c0.41-2.25,2.16-3.8,3.96-3.47C42.43,51.56,43.54,53.62,43.13,55.87z"/>
			<path class="st8" d="M40,54.07c-0.12,0.19-0.27,0.57-0.5,1.15c-0.22,0.53-0.37,0.92-0.51,0.99c-0.11,0.14-0.28,0.16-0.39,0.14
				c-0.16-0.03-0.3-0.16-0.38-0.38c-0.08-0.22-0.11-0.54-0.03-0.99c0.07-0.4,0.21-0.69,0.37-0.92c0.16-0.18,0.42-0.29,0.66-0.24
				l0.08-0.66c-0.24-0.04-0.5,0.01-0.72,0.13c-0.23,0.11-0.43,0.34-0.56,0.62c-0.12,0.19-0.19,0.38-0.24,0.63l-0.52-0.09l-0.12,0.65
				l0.52,0.09c-0.05,0.25,0,0.46-0.01,0.72c0.03,0.31,0.15,0.54,0.32,0.73s0.35,0.32,0.55,0.36c0.2,0.04,0.37,0.01,0.55-0.11
				c0.18-0.07,0.33-0.25,0.5-0.48c0.12-0.19,0.26-0.52,0.47-1c0.17-0.49,0.3-0.77,0.37-0.92c0.12-0.19,0.23-0.37,0.33-0.46
				c0.1-0.09,0.23-0.11,0.39-0.09c0.12,0.02,0.23,0.09,0.33,0.21c0.1,0.12,0.15,0.29,0.2,0.5c0.04,0.21,0,0.46-0.05,0.72
				c-0.05,0.3-0.14,0.54-0.26,0.78c-0.12,0.24-0.27,0.36-0.42,0.49c-0.14,0.08-0.35,0.14-0.55,0.11l-0.08,0.66
				c0.28,0.05,0.54-0.01,0.81-0.16c0.28-0.16,0.48-0.38,0.65-0.66c0.12-0.19,0.2-0.43,0.29-0.67l0.52,0.09l0.12-0.65l-0.52-0.09
				c0.05-0.3,0.03-0.61-0.01-0.88c-0.07-0.32-0.18-0.6-0.35-0.79s-0.35-0.32-0.59-0.37s-0.45-0.03-0.63,0.09
				C40.38,53.57,40.17,53.79,40,54.07z"/>
			<path class="st8" d="M36.99,42.88l-4.15,23.02c-0.05,0.3,0.07,0.53,0.27,0.57l9.29,1.67c0.2,0.04,0.4-0.19,0.45-0.44L47,44.68
				c0.05-0.3-0.07-0.53-0.27-0.57l-9.33-1.68C37.24,42.41,37.04,42.63,36.99,42.88z M43.6,44.59c-0.18,1.93,0.61,3.68,1.93,4.12
				l-2.65,14.72c-1.4,0.01-2.75,1.31-3.25,3.19L36.25,66c0.18-1.93-0.61-3.68-1.93-4.12l2.64-14.67c1.4-0.01,2.75-1.31,3.25-3.19
				l3.39,0.61L43.6,44.59z"/>
		</g>
		<g>
			
				<rect x="26.02" y="91.71" transform="matrix(0.8349 0.5503 -0.5503 0.8349 59.2528 -4.911)" class="st22" width="23.59" height="9.22"/>
			<path class="st8" d="M42.36,96.03c-0.18-0.56-0.49-1.1-0.89-1.61c-0.4-0.5-0.88-0.97-1.48-1.36s-1.17-0.63-1.83-0.82
				c-0.54-0.11-1.16-0.18-1.74-0.13c-0.58,0.05-1.13,0.23-1.6,0.49s-0.9,0.62-1.21,1.09c-0.29,0.44-0.45,0.96-0.53,1.54
				c-0.06,0.55,0.02,1.08,0.18,1.67c0.18,0.56,0.49,1.1,0.89,1.61c0.4,0.5,0.88,0.97,1.48,1.36c0.59,0.39,1.17,0.63,1.83,0.82
				c0.62,0.17,1.2,0.21,1.83,0.19c0.58-0.05,1.13-0.23,1.6-0.49c0.48-0.27,0.9-0.62,1.21-1.09c0.29-0.44,0.45-0.96,0.53-1.54
				C42.6,97.16,42.55,96.59,42.36,96.03z M36.03,99.18c-1.91-1.26-2.64-3.48-1.63-5.01s3.33-1.73,5.24-0.47
				c1.91,1.26,2.64,3.48,1.63,5.01C40.27,100.23,37.94,100.44,36.03,99.18z"/>
			<path class="st8" d="M38.92,97.01c-0.13-0.18-0.42-0.47-0.86-0.91c-0.4-0.41-0.7-0.7-0.71-0.86c-0.08-0.15-0.04-0.31,0.03-0.42
				c0.09-0.14,0.26-0.21,0.5-0.2c0.24,0.01,0.54,0.11,0.92,0.36c0.34,0.22,0.55,0.46,0.7,0.7c0.1,0.21,0.1,0.5-0.04,0.7l0.57,0.33
				c0.13-0.2,0.18-0.46,0.17-0.71c-0.02-0.25-0.14-0.53-0.35-0.76c-0.13-0.18-0.27-0.33-0.49-0.47l0.29-0.44l-0.55-0.36l-0.29,0.44
				c-0.21-0.14-0.43-0.18-0.66-0.29c-0.3-0.1-0.56-0.08-0.8,0.01c-0.24,0.09-0.44,0.2-0.55,0.37s-0.16,0.33-0.12,0.55
				c0,0.19,0.1,0.4,0.24,0.65c0.13,0.18,0.38,0.44,0.74,0.82c0.38,0.35,0.59,0.58,0.7,0.7c0.13,0.18,0.25,0.36,0.29,0.48
				s0.02,0.25-0.07,0.39c-0.07,0.1-0.18,0.17-0.33,0.22c-0.15,0.05-0.32,0.03-0.54-0.02c-0.21-0.04-0.43-0.18-0.64-0.32
				c-0.25-0.17-0.44-0.34-0.61-0.55s-0.23-0.39-0.29-0.58c-0.02-0.16,0.01-0.38,0.12-0.55l-0.57-0.33c-0.16,0.24-0.2,0.5-0.17,0.81
				c0.04,0.31,0.16,0.59,0.35,0.86c0.13,0.18,0.32,0.35,0.51,0.53L36.1,98.6l0.55,0.36l0.29-0.44c0.25,0.17,0.55,0.27,0.81,0.34
				c0.32,0.07,0.62,0.07,0.86-0.01c0.24-0.09,0.44-0.2,0.57-0.4c0.13-0.2,0.2-0.4,0.16-0.62C39.23,97.55,39.11,97.28,38.92,97.01z"
				/>
			<path class="st8" d="M50.38,98.65L30.85,85.78c-0.25-0.17-0.51-0.14-0.63,0.02l-5.19,7.88c-0.11,0.17,0.01,0.44,0.22,0.58
				l19.53,12.87c0.25,0.17,0.51,0.14,0.63-0.02l5.21-7.91C50.72,99.07,50.6,98.79,50.38,98.65z M46.22,104.05
				c-1.7-0.93-3.62-0.88-4.55,0.15l-12.48-8.23c0.55-1.29-0.13-3.04-1.65-4.24l1.89-2.87c1.7,0.93,3.62,0.88,4.55-0.15l12.44,8.2
				c-0.55,1.29,0.13,3.04,1.65,4.24l-1.89,2.87L46.22,104.05z"/>
		</g>
		<g>
			
				<rect x="60.08" y="63.74" transform="matrix(0.3785 0.9256 -0.9256 0.3785 113.1484 -27.6683)" class="st22" width="34.2" height="13.37"/>
			<path class="st8" d="M82.86,73.8c0.24-0.81,0.31-1.72,0.25-2.65c-0.06-0.93-0.26-1.88-0.65-2.84s-0.89-1.71-1.52-2.48
				c-0.55-0.57-1.24-1.17-1.98-1.58c-0.74-0.41-1.53-0.65-2.32-0.72c-0.79-0.07-1.58,0.01-2.34,0.32c-0.71,0.29-1.33,0.78-1.9,1.41
				c-0.51,0.61-0.86,1.31-1.15,2.14c-0.24,0.81-0.31,1.72-0.25,2.65c0.06,0.93,0.26,1.88,0.65,2.84s0.89,1.71,1.52,2.48
				c0.61,0.71,1.27,1.23,2.03,1.72c0.74,0.41,1.53,0.65,2.32,0.72s1.58-0.01,2.34-0.32c0.71-0.29,1.33-0.78,1.9-1.41
				C82.22,75.33,82.63,74.61,82.86,73.8z M72.71,72.38c-1.26-3.07-0.3-6.33,2.14-7.33c2.45-1,5.41,0.66,6.66,3.73
				s0.3,6.33-2.14,7.33S73.96,75.45,72.71,72.38z"/>
			<path class="st8" d="M77.94,72.15c0-0.32-0.12-0.91-0.29-1.79c-0.14-0.82-0.26-1.41-0.15-1.61c0.02-0.25,0.21-0.41,0.38-0.47
				c0.22-0.09,0.49-0.04,0.77,0.17c0.27,0.21,0.55,0.57,0.8,1.19c0.22,0.55,0.28,1,0.26,1.41c-0.05,0.34-0.29,0.68-0.62,0.81
				l0.42,0.86c0.33-0.13,0.6-0.4,0.78-0.72s0.27-0.75,0.21-1.2c0-0.32-0.06-0.61-0.2-0.95L81,69.54l-0.36-0.89l-0.71,0.29
				c-0.14-0.34-0.36-0.57-0.55-0.89c-0.28-0.37-0.61-0.55-0.96-0.64c-0.36-0.09-0.68-0.12-0.95-0.01c-0.27,0.11-0.46,0.27-0.59,0.56
				c-0.16,0.23-0.21,0.57-0.24,0.97c0,0.32,0.09,0.84,0.21,1.59c0.17,0.73,0.23,1.18,0.26,1.41c0,0.32,0.01,0.63-0.05,0.82
				c-0.05,0.18-0.19,0.32-0.41,0.4c-0.16,0.07-0.35,0.07-0.57,0c-0.22-0.07-0.41-0.23-0.63-0.46c-0.22-0.23-0.36-0.57-0.5-0.91
				c-0.17-0.41-0.25-0.77-0.28-1.16c-0.03-0.39,0.05-0.66,0.13-0.93c0.11-0.2,0.32-0.45,0.59-0.56l-0.42-0.86
				c-0.38,0.16-0.65,0.43-0.86,0.83c-0.21,0.41-0.29,0.84-0.29,1.31c0,0.32,0.09,0.68,0.17,1.04l-0.71,0.29l0.36,0.89l0.71-0.29
				c0.17,0.41,0.44,0.77,0.69,1.07c0.33,0.34,0.69,0.6,1.04,0.69c0.36,0.09,0.68,0.12,1.01-0.01s0.57-0.31,0.7-0.61
				C77.87,73.05,77.94,72.62,77.94,72.15z"/>
			<path class="st8" d="M90.32,83.5L77.48,52.1c-0.17-0.41-0.5-0.59-0.77-0.48L64.05,56.8c-0.27,0.11-0.35,0.54-0.21,0.88
				l12.84,31.39c0.17,0.41,0.5,0.59,0.77,0.48l12.71-5.2C90.38,84.27,90.46,83.84,90.32,83.5z M80.91,86.55
				c-1.28-2.5-3.61-4.02-5.57-3.54l-8.21-20.06c1.71-1.1,2.34-3.74,1.49-6.43l4.62-1.89c1.28,2.5,3.61,4.02,5.57,3.54l8.18,20
				c-1.71,1.1-2.34,3.74-1.49,6.43l-4.62,1.89L80.91,86.55z"/>
		</g>
		<g>
			
				<rect x="173.26" y="18.09" transform="matrix(0.2971 -0.9548 0.9548 0.2971 110.1391 199.183)" class="st22" width="34.2" height="13.37"/>
			<path class="st8" d="M188.13,18.56c-0.7,0.48-1.34,1.13-1.88,1.89c-0.54,0.76-1,1.62-1.3,2.61c-0.31,0.99-0.4,1.88-0.41,2.89
				c0.06,0.79,0.21,1.69,0.52,2.48c0.31,0.79,0.77,1.48,1.33,2.04c0.56,0.56,1.23,1,2.01,1.24c0.73,0.23,1.52,0.24,2.36,0.12
				c0.78-0.14,1.5-0.46,2.25-0.92c0.7-0.48,1.34-1.13,1.88-1.89c0.54-0.76,1-1.62,1.3-2.61c0.31-0.99,0.4-1.88,0.41-2.89
				c-0.02-0.93-0.19-1.76-0.48-2.62c-0.31-0.79-0.77-1.48-1.33-2.04c-0.56-0.56-1.23-1-2.01-1.24c-0.73-0.23-1.52-0.24-2.36-0.12
				C189.6,17.78,188.83,18.08,188.13,18.56z M195.06,26.12c-0.99,3.17-3.79,5.07-6.31,4.29c-2.52-0.78-3.75-3.95-2.77-7.12
				s3.79-5.07,6.31-4.29C194.81,19.79,196.04,22.95,195.06,26.12z"/>
			<path class="st8" d="M190.87,22.96c-0.2,0.25-0.49,0.78-0.92,1.57c-0.41,0.72-0.7,1.25-0.91,1.34c-0.18,0.18-0.42,0.18-0.59,0.12
				c-0.22-0.07-0.4-0.28-0.49-0.61s-0.06-0.79,0.14-1.42c0.18-0.56,0.42-0.95,0.7-1.25c0.26-0.23,0.66-0.34,0.99-0.23l0.23-0.93
				c-0.34-0.1-0.72-0.07-1.06,0.06c-0.35,0.12-0.68,0.41-0.92,0.79c-0.2,0.25-0.34,0.51-0.45,0.86l-0.73-0.23l-0.28,0.92l0.73,0.23
				c-0.11,0.35-0.09,0.67-0.14,1.04c-0.02,0.46,0.12,0.81,0.33,1.11c0.21,0.3,0.45,0.53,0.73,0.61c0.28,0.09,0.53,0.09,0.82-0.05
				c0.27-0.07,0.52-0.3,0.8-0.6c0.2-0.25,0.47-0.7,0.85-1.36c0.33-0.67,0.57-1.06,0.7-1.25c0.2-0.25,0.4-0.49,0.56-0.6
				s0.35-0.12,0.57-0.05c0.17,0.05,0.31,0.18,0.44,0.37c0.12,0.19,0.17,0.44,0.2,0.76c0.02,0.32-0.09,0.67-0.19,1.02
				c-0.13,0.42-0.3,0.76-0.52,1.07c-0.22,0.32-0.46,0.48-0.69,0.63c-0.21,0.09-0.54,0.14-0.82,0.05l-0.23,0.93
				c0.39,0.12,0.77,0.09,1.2-0.09c0.42-0.18,0.76-0.46,1.06-0.83c0.2-0.25,0.37-0.58,0.53-0.92l0.73,0.23l0.28-0.92l-0.73-0.23
				c0.13-0.42,0.15-0.88,0.15-1.27c-0.04-0.47-0.15-0.9-0.37-1.19c-0.21-0.3-0.45-0.53-0.79-0.63s-0.64-0.12-0.93,0.02
				C191.51,22.31,191.17,22.59,190.87,22.96z"/>
			<path class="st8" d="M188.55,6.33l-10.08,32.38c-0.13,0.42,0.01,0.77,0.29,0.86l13.06,4.06c0.28,0.09,0.61-0.2,0.72-0.55
				l10.08-32.38c0.13-0.42-0.01-0.77-0.29-0.86l-13.12-4.08C188.99,5.7,188.66,5.98,188.55,6.33z M197.75,9.97
				c-0.61,2.75,0.23,5.4,2.04,6.27l-6.44,20.7c-2.02-0.24-4.19,1.4-5.24,4.01l-4.76-1.48c0.61-2.75-0.23-5.4-2.04-6.27l6.42-20.63
				c2.02,0.24,4.19-1.4,5.24-4.01l4.76,1.48L197.75,9.97z"/>
		</g>
		<g>
			
				<rect x="104.97" y="171.24" transform="matrix(0.9102 0.4142 -0.4142 0.9102 83.7733 -33.231)" class="st22" width="27.07" height="10.58"/>
			<path class="st8" d="M123.61,175.39c-0.3-0.6-0.75-1.16-1.3-1.66s-1.17-0.94-1.92-1.28c-0.74-0.34-1.44-0.5-2.23-0.6
				c-0.63-0.03-1.35,0-2,0.16c-0.65,0.16-1.23,0.46-1.73,0.85c-0.5,0.39-0.91,0.86-1.18,1.46c-0.25,0.55-0.34,1.17-0.33,1.84
				c0.03,0.63,0.21,1.22,0.5,1.86c0.3,0.6,0.75,1.16,1.3,1.66s1.17,0.94,1.92,1.28c0.74,0.34,1.44,0.5,2.23,0.6
				c0.73,0.08,1.4,0.02,2.1-0.11c0.65-0.16,1.23-0.46,1.73-0.85s0.91-0.86,1.18-1.46c0.25-0.55,0.34-1.17,0.33-1.84
				C124.08,176.62,123.92,175.99,123.61,175.39z M116.99,180.08c-2.39-1.09-3.61-3.48-2.74-5.38c0.87-1.9,3.47-2.56,5.86-1.47
				s3.61,3.48,2.74,5.38C121.98,180.52,119.38,181.17,116.99,180.08z"/>
			<path class="st8" d="M119.88,177.11c-0.17-0.18-0.56-0.46-1.14-0.88c-0.53-0.39-0.91-0.67-0.96-0.85
				c-0.12-0.16-0.1-0.35-0.04-0.48c0.08-0.17,0.26-0.29,0.53-0.32s0.63,0.03,1.11,0.25c0.42,0.19,0.71,0.42,0.91,0.67
				c0.15,0.22,0.2,0.55,0.08,0.8l0.71,0.27c0.12-0.25,0.12-0.56,0.06-0.84c-0.06-0.28-0.25-0.57-0.53-0.8
				c-0.17-0.18-0.37-0.32-0.63-0.44l0.25-0.55l-0.69-0.31l-0.25,0.55c-0.27-0.12-0.52-0.13-0.8-0.21c-0.36-0.06-0.65,0.01-0.9,0.15
				c-0.26,0.14-0.46,0.3-0.55,0.51c-0.1,0.21-0.12,0.4-0.04,0.65c0.03,0.22,0.18,0.44,0.39,0.69c0.17,0.18,0.51,0.44,0.98,0.8
				c0.49,0.33,0.77,0.56,0.91,0.67c0.17,0.18,0.35,0.36,0.42,0.5c0.07,0.13,0.06,0.28-0.01,0.45c-0.06,0.13-0.17,0.23-0.33,0.31
				s-0.36,0.09-0.61,0.08c-0.25-0.01-0.52-0.13-0.78-0.25c-0.32-0.15-0.57-0.31-0.79-0.51c-0.23-0.21-0.33-0.4-0.43-0.6
				c-0.05-0.18-0.06-0.44,0.04-0.65l-0.71-0.27c-0.13,0.3-0.14,0.6-0.05,0.95c0.1,0.35,0.29,0.64,0.55,0.91
				c0.17,0.18,0.42,0.34,0.67,0.51l-0.25,0.55l0.69,0.31l0.25-0.55c0.32,0.15,0.68,0.21,0.98,0.24c0.38,0.02,0.72-0.03,0.97-0.17
				s0.46-0.3,0.57-0.56c0.12-0.25,0.16-0.49,0.08-0.73C120.33,177.67,120.14,177.38,119.88,177.11z"/>
			<path class="st8" d="M133.17,176.93l-24.43-11.12c-0.32-0.15-0.61-0.07-0.7,0.14l-4.48,9.85c-0.1,0.21,0.09,0.5,0.36,0.62
				l24.43,11.12c0.32,0.15,0.61,0.07,0.7-0.14l4.5-9.9C133.62,177.34,133.43,177.05,133.17,176.93z M129.4,183.79
				c-2.1-0.75-4.26-0.36-5.13,0.98l-15.62-7.11c0.39-1.56-0.68-3.43-2.63-4.51l1.64-3.59c2.1,0.75,4.26,0.36,5.13-0.98l15.56,7.08
				c-0.39,1.56,0.68,3.43,2.63,4.51l-1.64,3.59L129.4,183.79z"/>
		</g>
		<g>
			
				<rect x="103.66" y="92.71" transform="matrix(0.6794 0.7338 -0.7338 0.6794 109.481 -54.5758)" class="st22" width="27.07" height="10.58"/>
			<path class="st8" d="M122.35,98.92c-0.05-0.67-0.25-1.36-0.55-2.03c-0.31-0.67-0.72-1.32-1.27-1.92
				c-0.56-0.6-1.13-1.02-1.82-1.42c-0.57-0.27-1.24-0.52-1.91-0.62c-0.66-0.1-1.32-0.05-1.92,0.11c-0.61,0.16-1.17,0.45-1.65,0.89
				c-0.44,0.41-0.77,0.95-1.01,1.57c-0.21,0.59-0.27,1.21-0.26,1.91c0.05,0.67,0.25,1.36,0.55,2.03c0.31,0.67,0.72,1.32,1.27,1.92
				c0.56,0.6,1.13,1.02,1.82,1.42c0.65,0.36,1.28,0.56,1.98,0.71c0.66,0.1,1.32,0.05,1.92-0.11c0.61-0.16,1.17-0.45,1.65-0.89
				c0.44-0.41,0.77-0.95,1.01-1.57C122.3,100.24,122.4,99.59,122.35,98.92z M114.42,100.69c-1.78-1.93-1.98-4.61-0.45-6.03
				s4.19-1.02,5.97,0.91c1.78,1.93,1.98,4.61,0.45,6.03C118.86,103.02,116.21,102.62,114.42,100.69z"/>
			<path class="st8" d="M118.24,99.07c-0.09-0.23-0.34-0.64-0.71-1.25c-0.33-0.57-0.58-0.97-0.56-1.15
				c-0.05-0.19,0.05-0.36,0.15-0.46c0.14-0.13,0.35-0.17,0.61-0.09c0.26,0.08,0.57,0.27,0.92,0.66c0.32,0.34,0.49,0.66,0.58,0.97
				c0.06,0.27-0.03,0.58-0.23,0.77l0.55,0.53c0.2-0.19,0.33-0.46,0.38-0.75c0.05-0.29-0.01-0.63-0.18-0.95
				c-0.09-0.23-0.21-0.44-0.41-0.65l0.44-0.41l-0.52-0.56l-0.44,0.41c-0.2-0.21-0.43-0.32-0.66-0.5c-0.31-0.19-0.6-0.24-0.89-0.21
				c-0.29,0.03-0.54,0.1-0.71,0.26c-0.17,0.16-0.27,0.33-0.28,0.58c-0.06,0.21,0,0.48,0.1,0.79c0.09,0.23,0.3,0.6,0.59,1.12
				c0.33,0.49,0.5,0.81,0.58,0.97c0.09,0.23,0.18,0.47,0.19,0.62s-0.05,0.29-0.19,0.41c-0.1,0.09-0.24,0.15-0.43,0.16
				s-0.37-0.06-0.6-0.16c-0.23-0.11-0.43-0.32-0.62-0.54c-0.24-0.26-0.4-0.5-0.53-0.78c-0.13-0.28-0.15-0.5-0.16-0.72
				c0.02-0.18,0.11-0.42,0.28-0.58l-0.55-0.53c-0.24,0.22-0.36,0.5-0.41,0.86c-0.05,0.36,0.02,0.7,0.15,1.05
				c0.09,0.23,0.25,0.48,0.42,0.73l-0.44,0.41l0.52,0.56l0.44-0.41c0.24,0.26,0.54,0.45,0.81,0.6c0.34,0.16,0.67,0.25,0.96,0.22
				c0.29-0.03,0.54-0.1,0.74-0.29c0.2-0.19,0.34-0.39,0.35-0.64C118.44,99.76,118.38,99.42,118.24,99.07z"/>
			<path class="st8" d="M130.57,104.04l-18.24-19.7c-0.24-0.26-0.53-0.3-0.7-0.14l-7.94,7.36c-0.17,0.16-0.11,0.5,0.09,0.71
				l18.24,19.7c0.24,0.26,0.53,0.3,0.7,0.14l7.98-7.39C130.83,104.59,130.76,104.25,130.57,104.04z M124.44,108.91
				c-1.64-1.5-3.79-1.98-5.11-1.07l-11.66-12.59c0.96-1.29,0.69-3.42-0.68-5.18l2.9-2.68c1.64,1.5,3.79,1.98,5.11,1.07l11.62,12.55
				c-0.96,1.29-0.69,3.42,0.68,5.18l-2.9,2.68L124.44,108.91z"/>
		</g>
		<g>
			
				<rect x="159.74" y="135.78" transform="matrix(-0.0112 0.9999 -0.9999 -0.0112 316.278 -30.6172)" class="st22" width="27.07" height="10.58"/>
			<path class="st8" d="M176.39,145.28c0.42-0.52,0.76-1.16,1-1.86c0.24-0.7,0.39-1.45,0.4-2.27c0.01-0.82-0.12-1.52-0.35-2.28
				c-0.23-0.59-0.54-1.23-0.96-1.76c-0.41-0.53-0.92-0.94-1.47-1.24c-0.55-0.3-1.16-0.48-1.81-0.49c-0.6-0.01-1.21,0.16-1.82,0.45
				c-0.56,0.29-1.03,0.69-1.5,1.21c-0.42,0.52-0.76,1.16-1,1.86s-0.39,1.45-0.4,2.27s0.12,1.52,0.35,2.28
				c0.22,0.7,0.54,1.29,0.95,1.88c0.41,0.53,0.92,0.94,1.47,1.24s1.16,0.48,1.81,0.49c0.6,0.01,1.21-0.16,1.82-0.45
				C175.45,146.2,175.96,145.8,176.39,145.28z M169.41,141.12c0.03-2.63,1.73-4.71,3.82-4.68c2.09,0.02,3.74,2.14,3.71,4.77
				c-0.03,2.63-1.73,4.71-3.82,4.68C171.03,145.86,169.39,143.74,169.41,141.12z"/>
			<path class="st8" d="M173.3,142.56c0.1-0.23,0.19-0.7,0.34-1.4c0.15-0.64,0.24-1.11,0.39-1.22c0.09-0.17,0.28-0.23,0.42-0.23
				c0.19,0,0.37,0.12,0.51,0.36c0.14,0.23,0.23,0.59,0.22,1.11c-0.01,0.47-0.1,0.82-0.24,1.11c-0.14,0.23-0.42,0.4-0.7,0.4
				l0.04,0.76c0.28,0,0.56-0.11,0.79-0.28s0.42-0.46,0.52-0.81c0.1-0.23,0.14-0.47,0.15-0.76l0.6,0.01l0.01-0.76l-0.6-0.01
				c0-0.29-0.09-0.53-0.13-0.82c-0.09-0.35-0.27-0.59-0.5-0.76c-0.23-0.18-0.46-0.3-0.69-0.3c-0.23,0-0.42,0.05-0.61,0.23
				c-0.19,0.11-0.33,0.35-0.47,0.64c-0.1,0.23-0.19,0.64-0.34,1.22c-0.1,0.58-0.2,0.93-0.24,1.11c-0.1,0.23-0.19,0.46-0.29,0.58
				c-0.09,0.12-0.23,0.17-0.42,0.17c-0.14,0-0.28-0.06-0.42-0.18c-0.14-0.12-0.23-0.29-0.32-0.53s-0.09-0.53-0.08-0.82
				c0-0.35,0.05-0.64,0.15-0.93s0.24-0.46,0.38-0.64c0.14-0.12,0.37-0.23,0.61-0.23l-0.04-0.76c-0.33,0-0.61,0.11-0.89,0.34
				s-0.47,0.52-0.61,0.87c-0.1,0.23-0.15,0.52-0.19,0.81l-0.6-0.01l-0.01,0.76l0.6,0.01c0,0.35,0.09,0.7,0.17,0.99
				c0.14,0.35,0.32,0.65,0.55,0.82c0.23,0.18,0.46,0.3,0.74,0.3c0.28,0,0.51-0.05,0.7-0.23C172.97,143.2,173.16,142.91,173.3,142.56
				z"/>
			<path class="st8" d="M178.84,154.65l0.3-26.84c0-0.35-0.18-0.59-0.41-0.59l-10.83-0.12c-0.23,0-0.42,0.29-0.42,0.58l-0.3,26.84
				c0,0.35,0.18,0.59,0.41,0.59l10.87,0.12C178.64,155.23,178.83,154.94,178.84,154.65z M171.04,153.98
				c-0.16-2.22-1.4-4.04-2.97-4.29l0.19-17.16c1.58-0.27,2.86-2.01,3.07-4.23l3.95,0.04c0.16,2.22,1.4,4.04,2.97,4.29l-0.19,17.1
				c-1.58,0.27-2.86,2.01-3.07,4.23l-3.95-0.04L171.04,153.98z"/>
		</g>
		<g>
			
				<rect x="145.2" y="102.49" transform="matrix(0.1798 0.9837 -0.9837 0.1798 236.2195 -67.7501)" class="st22" width="27.07" height="10.58"/>
			<path class="st8" d="M162.59,111.32c0.32-0.59,0.52-1.28,0.62-2.01c0.1-0.73,0.1-1.5-0.04-2.31c-0.15-0.8-0.41-1.47-0.77-2.17
				c-0.33-0.53-0.77-1.11-1.27-1.55c-0.51-0.44-1.08-0.75-1.68-0.94c-0.6-0.19-1.23-0.25-1.87-0.13c-0.59,0.11-1.16,0.39-1.7,0.79
				c-0.5,0.39-0.88,0.87-1.24,1.47c-0.32,0.59-0.52,1.28-0.62,2.01s-0.1,1.5,0.04,2.31c0.15,0.8,0.41,1.47,0.77,2.17
				c0.35,0.65,0.78,1.16,1.3,1.66c0.51,0.44,1.08,0.75,1.68,0.94c0.6,0.19,1.23,0.25,1.87,0.13c0.59-0.11,1.16-0.39,1.7-0.79
				C161.84,112.4,162.27,111.91,162.59,111.32z M154.95,108.56c-0.47-2.58,0.8-4.95,2.85-5.33c2.06-0.38,4.08,1.39,4.55,3.97
				c0.47,2.58-0.8,4.95-2.85,5.33S155.43,111.14,154.95,108.56z"/>
			<path class="st8" d="M159.05,109.24c0.05-0.25,0.06-0.72,0.07-1.44c0.02-0.66,0.03-1.13,0.15-1.27c0.06-0.19,0.23-0.28,0.37-0.3
				c0.18-0.03,0.39,0.05,0.57,0.25c0.18,0.2,0.33,0.53,0.43,1.05c0.08,0.46,0.06,0.82-0.03,1.13c-0.1,0.25-0.34,0.48-0.61,0.53
				l0.18,0.74c0.27-0.05,0.53-0.22,0.72-0.43c0.2-0.21,0.33-0.53,0.36-0.9c0.05-0.25,0.05-0.48,0-0.77l0.59-0.11l-0.14-0.75
				l-0.59,0.11c-0.05-0.29-0.19-0.5-0.28-0.78c-0.15-0.33-0.38-0.52-0.64-0.65c-0.26-0.13-0.51-0.2-0.74-0.16
				c-0.23,0.04-0.4,0.13-0.55,0.34c-0.16,0.15-0.26,0.4-0.34,0.72c-0.05,0.25-0.07,0.66-0.1,1.26c0.01,0.59-0.01,0.95-0.03,1.13
				c-0.05,0.25-0.1,0.49-0.17,0.62c-0.07,0.13-0.2,0.21-0.38,0.25c-0.14,0.03-0.28-0.01-0.44-0.1c-0.16-0.09-0.28-0.25-0.41-0.46
				c-0.13-0.21-0.19-0.5-0.24-0.79c-0.06-0.34-0.07-0.64-0.03-0.94s0.14-0.5,0.25-0.7c0.12-0.14,0.32-0.3,0.55-0.34l-0.18-0.74
				c-0.32,0.06-0.57,0.22-0.81,0.5c-0.23,0.28-0.36,0.6-0.44,0.97c-0.05,0.25-0.04,0.54-0.04,0.84l-0.59,0.11l0.14,0.75l0.59-0.11
				c0.06,0.34,0.22,0.67,0.36,0.94c0.2,0.32,0.44,0.57,0.7,0.7c0.26,0.13,0.51,0.2,0.78,0.15s0.49-0.15,0.64-0.35
				C158.84,109.93,158.97,109.61,159.05,109.24z"/>
			<path class="st8" d="M166.78,120.04l-4.83-26.41c-0.06-0.34-0.29-0.54-0.52-0.5l-10.65,1.95c-0.23,0.04-0.36,0.36-0.31,0.65
				l4.83,26.41c0.06,0.34,0.29,0.54,0.52,0.5l10.7-1.95C166.71,120.65,166.84,120.33,166.78,120.04z M159,120.87
				c-0.58-2.15-2.14-3.7-3.74-3.65l-3.08-16.88c1.5-0.57,2.42-2.52,2.21-4.73l3.89-0.71c0.58,2.15,2.14,3.7,3.74,3.65l3.07,16.82
				c-1.5,0.57-2.42,2.52-2.21,4.73l-3.89,0.71L159,120.87z"/>
		</g>
		<g>
			
				<rect x="36.35" y="198.39" transform="matrix(0.9279 -0.3728 0.3728 0.9279 -72.2817 32.9456)" class="st22" width="25.38" height="9.92"/>
			<path class="st8" d="M51.57,199.15c-0.6-0.18-1.28-0.24-1.97-0.2c-0.69,0.04-1.4,0.19-2.11,0.47s-1.27,0.65-1.85,1.12
				c-0.43,0.41-0.87,0.91-1.18,1.46s-0.49,1.13-0.55,1.72c-0.06,0.59,0,1.17,0.23,1.74c0.21,0.53,0.57,0.99,1.04,1.41
				c0.45,0.38,0.97,0.64,1.59,0.87c0.6,0.18,1.28,0.24,1.97,0.2c0.69-0.04,1.4-0.19,2.11-0.47c0.71-0.29,1.27-0.65,1.85-1.12
				c0.53-0.45,0.92-0.93,1.28-1.5c0.31-0.55,0.49-1.13,0.55-1.72c0.06-0.59,0-1.17-0.23-1.74c-0.21-0.53-0.57-0.99-1.04-1.41
				C52.71,199.63,52.17,199.33,51.57,199.15z M50.47,206.68c-2.28,0.92-4.7,0.2-5.43-1.62c-0.73-1.82,0.51-4.01,2.8-4.93
				c2.28-0.92,4.7-0.2,5.43,1.62C53.99,203.58,52.75,205.76,50.47,206.68z"/>
			<path class="st8" d="M50.32,202.8c-0.24,0-0.67,0.08-1.33,0.21c-0.61,0.1-1.05,0.19-1.2,0.1c-0.18-0.02-0.3-0.16-0.35-0.28
				c-0.06-0.16-0.03-0.36,0.13-0.57c0.15-0.2,0.43-0.41,0.88-0.59c0.41-0.16,0.74-0.2,1.05-0.19c0.25,0.04,0.5,0.22,0.6,0.46
				l0.64-0.31c-0.1-0.24-0.3-0.44-0.53-0.59s-0.55-0.2-0.89-0.16c-0.24,0-0.45,0.04-0.71,0.14l-0.21-0.53l-0.66,0.27l0.21,0.53
				c-0.25,0.1-0.42,0.26-0.66,0.41c-0.27,0.2-0.41,0.45-0.48,0.71c-0.07,0.26-0.09,0.51-0.01,0.71s0.2,0.34,0.41,0.44
				c0.17,0.12,0.42,0.16,0.72,0.18c0.24,0,0.62-0.06,1.18-0.15c0.54-0.12,0.88-0.16,1.05-0.19c0.24,0,0.47,0,0.61,0.04
				s0.23,0.14,0.3,0.3c0.05,0.12,0.05,0.26-0.01,0.42c-0.05,0.16-0.17,0.3-0.34,0.47c-0.17,0.16-0.42,0.26-0.68,0.37
				c-0.3,0.12-0.57,0.18-0.86,0.21s-0.49-0.04-0.69-0.1c-0.15-0.08-0.33-0.24-0.41-0.44l-0.64,0.31c0.11,0.28,0.31,0.48,0.61,0.65
				c0.3,0.16,0.62,0.22,0.97,0.22c0.24,0,0.51-0.06,0.78-0.12l0.21,0.53l0.66-0.27l-0.21-0.53c0.3-0.12,0.58-0.33,0.8-0.51
				c0.26-0.24,0.44-0.51,0.52-0.77c0.07-0.26,0.09-0.51-0.01-0.75s-0.23-0.42-0.45-0.52C50.99,202.86,50.67,202.8,50.32,202.8z"/>
			<path class="st8" d="M58.8,193.67l-23.35,9.38c-0.3,0.12-0.44,0.37-0.36,0.57l3.78,9.42c0.08,0.2,0.4,0.26,0.65,0.16l23.35-9.38
				c0.3-0.12,0.44-0.37,0.36-0.57l-3.8-9.46C59.37,193.62,59.05,193.56,58.8,193.67z M61.02,200.66c-1.86,0.94-3,2.66-2.65,4.12
				l-14.92,6c-0.81-1.27-2.77-1.75-4.76-1.14l-1.38-3.44c1.86-0.94,3-2.66,2.65-4.12l14.87-5.98c0.81,1.27,2.77,1.75,4.76,1.14
				l1.38,3.44L61.02,200.66z"/>
		</g>
		<g>
			
				<rect x="125.61" y="226.97" transform="matrix(0.8807 0.4736 -0.4736 0.8807 126.4735 -38.0328)" class="st22" width="26.29" height="10.28"/>
			<path class="st8" d="M143.78,231.33c-0.26-0.6-0.66-1.17-1.15-1.69c-0.49-0.52-1.08-0.99-1.78-1.36
				c-0.7-0.38-1.36-0.58-2.12-0.73c-0.61-0.07-1.3-0.09-1.95,0.03c-0.64,0.12-1.23,0.37-1.73,0.71c-0.51,0.34-0.93,0.78-1.23,1.34
				c-0.28,0.52-0.41,1.11-0.43,1.76c-0.01,0.61,0.13,1.2,0.36,1.84c0.26,0.6,0.66,1.17,1.15,1.69c0.49,0.52,1.08,0.99,1.78,1.36
				c0.7,0.38,1.36,0.58,2.12,0.73c0.71,0.12,1.35,0.11,2.05,0.02c0.64-0.12,1.23-0.37,1.73-0.71c0.51-0.34,0.93-0.78,1.23-1.34
				c0.28-0.52,0.41-1.11,0.43-1.76C144.15,232.55,144.03,231.93,143.78,231.33z M137.05,235.45c-2.25-1.21-3.27-3.6-2.31-5.39
				s3.53-2.25,5.77-1.04c2.25,1.21,3.27,3.6,2.31,5.39C141.87,236.19,139.3,236.66,137.05,235.45z"/>
			<path class="st8" d="M140.05,232.75c-0.16-0.19-0.51-0.48-1.05-0.92c-0.48-0.41-0.84-0.71-0.88-0.88
				c-0.11-0.16-0.07-0.35-0.01-0.47c0.09-0.16,0.27-0.26,0.53-0.28c0.26-0.01,0.61,0.07,1.06,0.31c0.4,0.21,0.66,0.46,0.84,0.71
				c0.14,0.23,0.16,0.55,0.03,0.78l0.67,0.31c0.13-0.24,0.16-0.53,0.11-0.81s-0.21-0.57-0.46-0.81c-0.16-0.19-0.34-0.33-0.58-0.47
				l0.28-0.52l-0.65-0.35l-0.28,0.52c-0.25-0.13-0.49-0.16-0.76-0.26c-0.34-0.08-0.63-0.03-0.88,0.09
				c-0.26,0.12-0.46,0.26-0.57,0.46c-0.11,0.2-0.14,0.38-0.08,0.62c0.01,0.21,0.15,0.44,0.34,0.69c0.16,0.19,0.46,0.45,0.9,0.84
				c0.46,0.35,0.71,0.59,0.84,0.71c0.16,0.19,0.31,0.37,0.37,0.51c0.06,0.13,0.04,0.28-0.04,0.44c-0.06,0.12-0.18,0.21-0.34,0.28
				s-0.36,0.06-0.6,0.04c-0.24-0.03-0.49-0.16-0.74-0.3c-0.3-0.16-0.53-0.33-0.73-0.55c-0.21-0.21-0.29-0.41-0.38-0.61
				c-0.04-0.17-0.03-0.43,0.08-0.62l-0.67-0.31c-0.15,0.28-0.18,0.57-0.11,0.92c0.07,0.35,0.24,0.64,0.47,0.92
				c0.16,0.19,0.39,0.36,0.61,0.53l-0.28,0.52l0.65,0.35l0.28-0.52c0.3,0.16,0.64,0.24,0.93,0.3c0.36,0.04,0.7,0.02,0.96-0.1
				c0.26-0.12,0.46-0.26,0.59-0.5c0.13-0.24,0.19-0.46,0.12-0.7C140.45,233.33,140.28,233.04,140.05,232.75z"/>
			<path class="st8" d="M152.94,233.44l-22.96-12.35c-0.3-0.16-0.58-0.11-0.69,0.09l-4.98,9.26c-0.11,0.2,0.06,0.49,0.31,0.63
				l22.96,12.35c0.3,0.16,0.58,0.11,0.69-0.09l5-9.3C153.35,233.86,153.19,233.57,152.94,233.44z M148.85,239.84
				c-1.98-0.86-4.11-0.62-5.03,0.62l-14.68-7.89c0.48-1.49-0.44-3.36-2.25-4.54l1.82-3.38c1.98,0.86,4.11,0.62,5.03-0.62l14.63,7.86
				c-0.48,1.49,0.44,3.36,2.25,4.54l-1.82,3.38L148.85,239.84z"/>
		</g>
		<g>
			
				<rect x="115.96" y="236.27" transform="matrix(0.9939 -0.1101 0.1101 0.9939 -25.7834 15.6748)" class="st22" width="26.29" height="10.28"/>
			<path class="st8" d="M132.8,237.92c-0.55-0.35-1.21-0.59-1.91-0.74s-1.45-0.2-2.24-0.12c-0.79,0.09-1.45,0.3-2.16,0.6
				c-0.54,0.29-1.12,0.67-1.59,1.13c-0.46,0.46-0.8,1-1.02,1.57c-0.22,0.57-0.33,1.17-0.26,1.8c0.06,0.58,0.3,1.15,0.64,1.7
				c0.34,0.51,0.79,0.91,1.34,1.3c0.55,0.35,1.21,0.59,1.91,0.74c0.7,0.15,1.45,0.2,2.24,0.12c0.79-0.09,1.45-0.3,2.16-0.6
				c0.65-0.3,1.18-0.68,1.7-1.14c0.46-0.46,0.8-1,1.02-1.57c0.22-0.57,0.33-1.17,0.26-1.8c-0.06-0.58-0.3-1.15-0.64-1.7
				C133.8,238.71,133.35,238.26,132.8,237.92z M129.61,245.13c-2.53,0.28-4.74-1.11-4.96-3.13s1.63-3.86,4.16-4.14
				s4.74,1.11,4.96,3.13C133.99,243.01,132.14,244.85,129.61,245.13z"/>
			<path class="st8" d="M130.54,241.21c-0.24-0.06-0.7-0.1-1.39-0.16c-0.63-0.07-1.1-0.11-1.22-0.23c-0.18-0.07-0.26-0.24-0.27-0.38
				c-0.02-0.18,0.07-0.37,0.28-0.53s0.54-0.29,1.05-0.34c0.45-0.05,0.8,0,1.1,0.11c0.24,0.11,0.44,0.36,0.47,0.63l0.73-0.13
				c-0.03-0.27-0.17-0.53-0.37-0.73s-0.5-0.35-0.84-0.41c-0.24-0.06-0.47-0.08-0.75-0.05l-0.06-0.58l-0.73,0.08l0.06,0.58
				c-0.28,0.03-0.5,0.15-0.77,0.22c-0.33,0.13-0.53,0.33-0.68,0.57c-0.14,0.24-0.23,0.48-0.21,0.7c0.02,0.22,0.1,0.4,0.29,0.56
				c0.13,0.17,0.37,0.28,0.67,0.38c0.24,0.06,0.64,0.11,1.22,0.18c0.57,0.03,0.92,0.08,1.1,0.11c0.24,0.06,0.47,0.13,0.59,0.21
				s0.19,0.21,0.21,0.38c0.01,0.13-0.03,0.28-0.12,0.42c-0.1,0.15-0.26,0.26-0.47,0.37c-0.22,0.11-0.5,0.15-0.78,0.18
				c-0.34,0.04-0.62,0.02-0.92-0.03s-0.48-0.17-0.66-0.29c-0.13-0.12-0.27-0.33-0.29-0.56l-0.73,0.13c0.03,0.31,0.18,0.57,0.43,0.81
				c0.26,0.24,0.56,0.39,0.91,0.49c0.24,0.06,0.52,0.08,0.81,0.09l0.06,0.58l0.73-0.08l-0.06-0.58c0.34-0.04,0.67-0.16,0.94-0.29
				c0.32-0.17,0.58-0.38,0.73-0.63c0.14-0.24,0.23-0.48,0.2-0.75c-0.03-0.27-0.11-0.49-0.3-0.65
				C131.19,241.45,130.89,241.31,130.54,241.21z"/>
			<path class="st8" d="M141.54,234.45l-25.91,2.87c-0.34,0.04-0.54,0.24-0.52,0.47l1.16,10.45c0.02,0.22,0.33,0.37,0.61,0.34
				l25.91-2.87c0.34-0.04,0.54-0.24,0.52-0.47l-1.16-10.49C142.12,234.57,141.82,234.42,141.54,234.45z M141.81,242.05
				c-2.12,0.42-3.73,1.82-3.79,3.37l-16.56,1.83c-0.45-1.49-2.27-2.52-4.43-2.46l-0.42-3.81c2.12-0.42,3.73-1.82,3.79-3.37
				l16.5-1.83c0.45,1.49,2.27,2.52,4.43,2.46l0.42,3.81L141.81,242.05z"/>
		</g>
		<g>
			
				<rect x="98.26" y="178.92" transform="matrix(0.7901 -0.613 0.613 0.7901 -89.3108 103.8953)" class="st22" width="17.59" height="6.88"/>
			<path class="st8" d="M107.94,179.08c-0.44-0.01-0.9,0.08-1.35,0.24c-0.45,0.16-0.9,0.39-1.32,0.72c-0.42,0.33-0.72,0.68-1.02,1.1
				c-0.21,0.35-0.41,0.77-0.51,1.2c-0.1,0.42-0.11,0.85-0.04,1.25c0.07,0.4,0.22,0.78,0.48,1.12c0.24,0.31,0.57,0.55,0.96,0.74
				c0.37,0.17,0.77,0.25,1.22,0.28c0.44,0.01,0.9-0.08,1.35-0.24c0.45-0.16,0.9-0.39,1.32-0.72c0.42-0.33,0.72-0.68,1.02-1.1
				c0.27-0.4,0.44-0.8,0.57-1.24c0.1-0.42,0.11-0.85,0.04-1.25c-0.07-0.4-0.22-0.78-0.48-1.12c-0.24-0.31-0.57-0.55-0.96-0.74
				C108.79,179.19,108.38,179.09,107.94,179.08z M108.64,184.31c-1.35,1.05-3.09,1.02-3.93-0.05c-0.83-1.07-0.42-2.77,0.93-3.81
				c1.35-1.05,3.09-1.02,3.93,0.05C110.4,181.57,109.99,183.26,108.64,184.31z"/>
			<path class="st8" d="M107.81,181.75c-0.16,0.05-0.43,0.18-0.85,0.39c-0.39,0.18-0.66,0.32-0.78,0.3
				c-0.13,0.02-0.23-0.05-0.29-0.12c-0.07-0.1-0.09-0.24-0.02-0.4c0.06-0.16,0.21-0.35,0.48-0.56c0.24-0.19,0.46-0.28,0.66-0.32
				c0.18-0.02,0.38,0.05,0.49,0.2l0.37-0.33c-0.11-0.14-0.28-0.24-0.46-0.29s-0.41-0.03-0.62,0.06c-0.16,0.05-0.3,0.11-0.44,0.23
				l-0.24-0.31l-0.39,0.3l0.24,0.31c-0.15,0.12-0.23,0.26-0.36,0.4c-0.14,0.19-0.19,0.38-0.19,0.56s0.04,0.35,0.13,0.47
				s0.2,0.19,0.36,0.22c0.13,0.05,0.31,0.03,0.51-0.02c0.16-0.05,0.4-0.16,0.76-0.32c0.34-0.18,0.55-0.28,0.66-0.32
				c0.16-0.05,0.31-0.09,0.41-0.09c0.1,0,0.18,0.05,0.26,0.14c0.06,0.07,0.08,0.17,0.08,0.28s-0.06,0.24-0.14,0.38
				s-0.23,0.26-0.38,0.37c-0.18,0.14-0.35,0.23-0.53,0.3c-0.19,0.07-0.33,0.07-0.48,0.06c-0.12-0.03-0.27-0.1-0.36-0.22l-0.37,0.33
				c0.13,0.17,0.3,0.26,0.53,0.31s0.45,0.03,0.69-0.04c0.16-0.05,0.33-0.14,0.49-0.23l0.24,0.31l0.39-0.3l-0.24-0.31
				c0.18-0.14,0.32-0.33,0.44-0.49c0.12-0.21,0.2-0.42,0.2-0.61c0-0.19-0.04-0.35-0.15-0.5c-0.11-0.14-0.23-0.24-0.4-0.26
				C108.26,181.66,108.04,181.68,107.81,181.75z"/>
			<path class="st8" d="M111.72,174.05l-13.78,10.69c-0.18,0.14-0.23,0.33-0.13,0.45l4.31,5.56c0.09,0.12,0.32,0.1,0.47-0.02
				l13.78-10.69c0.18-0.14,0.23-0.33,0.13-0.45l-4.33-5.58C112.09,173.91,111.87,173.93,111.72,174.05z M114.53,178.29
				c-1.06,0.98-1.49,2.34-0.98,3.25l-8.81,6.83c-0.78-0.69-2.18-0.64-3.39,0.15l-1.57-2.03c1.06-0.98,1.49-2.34,0.98-3.25l8.78-6.81
				c0.78,0.69,2.18,0.64,3.39-0.15l1.57,2.03L114.53,178.29z"/>
		</g>
	</g>
</g>
</svg>
